<svg width="17" height="15" viewBox="0 0 17 15" fill="none" xmlns="http://www.w3.org/2000/svg">
<path d="M1.79167 2.58333H14.4583M11.2917 10.5H8.91667M4.95833 7.33333L6.54167 8.91667L4.95833 10.5M1 11.1335V3.53349C1 2.64674 1 2.20303 1.17258 1.86434C1.32437 1.56641 1.56641 1.32437 1.86434 1.17258C2.20303 1 2.64674 1 3.53349 1H12.7168C13.6036 1 14.0464 1 14.385 1.17258C14.6829 1.32437 14.9258 1.56641 15.0776 1.86434C15.25 2.2027 15.25 2.64587 15.25 3.53089V11.1358C15.25 12.0208 15.25 12.4633 15.0776 12.8017C14.9258 13.0996 14.6829 13.3425 14.385 13.4942C14.0467 13.6667 13.6041 13.6667 12.7191 13.6667H3.53091C2.64588 13.6667 2.20271 13.6667 1.86434 13.4942C1.56641 13.3425 1.32437 13.0996 1.17258 12.8017C1 12.463 1 12.0202 1 11.1335Z" stroke="#81A2BE" stroke-width="1.58333" stroke-linecap="round" stroke-linejoin="round"/>
</svg>
