<svg width="20" height="20" viewBox="0 0 20 20" fill="none" xmlns="http://www.w3.org/2000/svg">
<path d="M3.72378 14.6099C4.68608 16.4295 6.60763 17.0833 10.0003 17.0833C14.6882 17.0833 16.5673 15.835 16.9881 11.9877M3.72378 14.6099C3.14969 13.5243 2.91699 12.024 2.91699 9.99996C2.91699 4.58329 4.58366 2.91663 10.0003 2.91663C15.417 2.91663 17.0837 4.58329 17.0837 9.99996C17.0837 10.7287 17.0535 11.3896 16.9881 11.9877M3.72378 14.6099L6.32182 12.0118C6.97269 11.361 8.02797 11.361 8.67883 12.0118L8.82183 12.1548C9.47266 12.8056 10.528 12.8056 11.1788 12.1548L12.9885 10.3451C13.6393 9.69429 14.6947 9.69429 15.3455 10.3451L16.9881 11.9877M8.90949 7.37163C8.90949 8.22079 8.22033 8.90996 7.37116 8.90996C6.52283 8.90996 5.83366 8.22079 5.83366 7.37163C5.83366 6.52246 6.52283 5.83329 7.37116 5.83329C8.22033 5.83329 8.90949 6.52246 8.90949 7.37163Z" stroke="#81A2BE" stroke-width="1.25" stroke-linecap="round" stroke-linejoin="round"/>
</svg>
