<svg width="11" height="13" viewBox="0 0 11 13" fill="none" xmlns="http://www.w3.org/2000/svg">
<path d="M1.48534 12.5684H6.07324C8.75393 12.5684 10.4502 11.1533 10.4502 8.98241C10.4502 7.26855 9.21975 6.02929 7.42676 5.93261V5.8623C8.88574 5.66014 9.87893 4.56154 9.87893 3.16406C9.87893 1.20409 8.38478 0 5.94143 0H1.48534C0.544913 0 0 0.553725 0 1.52048V11.0567C0 12.0146 0.544913 12.5684 1.48534 12.5684ZM2.9004 5.22071V2.06543H5.0625C6.29295 2.06543 7.02244 2.62793 7.02244 3.59471C7.02244 4.61426 6.21386 5.22071 4.84279 5.22071H2.9004ZM2.9004 10.5381V7.0488H5.10645C6.65333 7.0488 7.50585 7.64648 7.50585 8.77148C7.50585 9.92284 6.67969 10.5381 5.16795 10.5381H2.9004Z" fill="#81A2BE"/>
</svg>
