<svg width="150" height="150" viewBox="0 0 150 150" fill="none" xmlns="http://www.w3.org/2000/svg">
<rect width="150" height="150" rx="29" fill="#202222"/>
<path d="M132.226 66.9894L132.195 66.9604L132.22 66.9856C131.676 66.4318 131.066 65.9306 130.394 65.4839C130.163 65.482 129.93 65.4355 129.707 65.3383C129.346 65.1847 129.064 64.9263 128.871 64.6174C127.797 64.1066 126.672 63.7782 125.532 63.617C124.535 63.4793 123.848 62.5603 123.987 61.5656C124.125 60.5728 125.044 59.8813 126.035 60.019C127.172 60.1805 128.3 60.4718 129.394 60.8933C129.567 60.1007 129.664 59.2926 129.664 58.4727C129.662 56.6853 129.243 54.8785 128.347 53.1825V53.1806C127.323 51.238 125.831 49.7246 124.075 48.6853C122.538 47.776 120.806 47.2377 119.022 47.1192C118.892 48.7356 118.505 50.3579 117.829 51.9237C117.433 52.8446 116.365 53.2718 115.442 52.8755C114.521 52.4792 114.093 51.4108 114.49 50.4878C115.137 48.9804 115.442 47.4222 115.446 45.8818C115.446 45.6603 115.436 45.4408 115.426 45.2212C115.306 43.0883 114.595 41.0231 113.39 39.2688C112.184 37.5125 110.495 36.0709 108.392 35.1659C106.884 34.5151 105.322 34.2099 103.783 34.2099C100.836 34.2099 97.9806 35.3445 95.8278 37.3473C96.232 38.7188 96.4554 40.168 96.4554 41.6678C96.4554 42.6702 95.6414 43.4823 94.6388 43.4823C93.6344 43.4823 92.8204 42.6702 92.8204 41.6678C92.8204 40.1954 92.5494 38.8003 92.0558 37.5028L92.0567 37.5045C91.2194 35.3132 89.736 33.4344 87.8411 32.1058C85.9469 30.777 83.6537 30 81.1601 30C78.9902 30 76.9716 30.5865 75.236 31.6124C73.8478 32.4321 72.6481 33.5377 71.7078 34.8392C73.5464 37.3629 74.6316 40.4789 74.6307 43.8359C74.6307 44.8384 73.8176 45.6503 72.8141 45.6503C71.8087 45.6503 70.9957 44.8382 70.9957 43.8359C70.9947 40.8828 69.9086 38.1981 68.106 36.1464L68.1032 36.1445C65.9594 33.7006 62.8315 32.1699 59.33 32.1678C56.8967 32.1697 54.6529 32.906 52.7829 34.1748C50.916 35.4433 49.4329 37.2404 48.5538 39.3481C47.9834 40.7256 47.6631 42.2449 47.6631 43.8359C47.6631 44.8384 46.8509 45.6503 45.8465 45.6503C44.843 45.6503 44.0292 44.8382 44.0292 43.8359C44.0292 42.3612 44.2439 40.9334 44.6324 39.5813C43.2636 39.0256 41.7843 38.7224 40.2612 38.7224C39.3997 38.7224 38.5235 38.8214 37.6463 39.0216C35.0596 39.6162 32.8885 41.0148 31.3092 42.9012C30.1679 44.263 29.3499 45.8794 28.9225 47.62C32.6807 47.6901 36.434 49.1393 39.3277 51.9736C40.0444 52.6748 40.0572 53.8248 39.3548 54.5417C38.6536 55.2584 37.5026 55.2703 36.7855 54.5707C34.5116 52.3464 31.5732 51.241 28.6242 51.2372C28.0959 51.2372 27.5692 51.2762 27.0465 51.3441L27.0399 51.346H27.037H27.0351C24.5589 51.6841 22.1784 52.8109 20.286 54.7379C18.0606 57.0128 16.958 59.9444 16.9573 62.8954C16.9573 64.5875 17.3235 66.2815 18.0539 67.8435C18.63 69.0752 19.4302 70.2253 20.4599 71.2354L20.4618 71.2373C21.6324 72.3873 22.9805 73.2325 24.4171 73.79C25.3525 74.1493 25.8177 75.2024 25.4553 76.1387C25.0929 77.075 24.041 77.5414 23.1056 77.1781C21.2231 76.4515 19.4464 75.3345 17.9148 73.8309C17.2435 73.1703 16.6432 72.4631 16.1167 71.7191C14.7433 73.686 14 76.0388 14 78.4321C14.0009 80.2874 14.4431 82.1622 15.3813 83.9203C16.4361 85.8903 17.963 87.425 19.7563 88.476C21.1772 89.3095 22.7635 89.8281 24.3965 90.0107L24.3934 89.9057C24.3934 88.944 24.4829 87.9999 24.6517 87.0868C24.8344 86.1 25.7825 85.4491 26.7685 85.6295C27.7563 85.8105 28.4081 86.7622 28.2265 87.7491C28.0963 88.4484 28.0272 89.1691 28.0272 89.9055C28.0272 90.1852 28.0379 90.4649 28.0574 90.7447C28.0788 91.042 28.1099 91.3255 28.1548 91.5957L28.1567 91.6093L28.1586 91.6228C28.9901 97.3285 33.9158 101.585 39.6865 101.585C39.9625 101.585 40.2422 101.573 40.5231 101.554H40.526C43.0846 101.369 45.3818 100.381 47.2002 98.8459C48.4844 97.7619 49.5276 96.4117 50.2473 94.8884C50.6757 93.9813 51.7597 93.5928 52.6671 94.0221C53.5742 94.4514 53.9617 95.5335 53.5333 96.4409C52.759 98.0786 51.6994 99.5549 50.4202 100.818C51.135 103.009 52.4764 104.899 54.225 106.3C56.2347 107.907 58.7619 108.851 61.4897 108.851C61.7656 108.851 62.0432 108.843 62.3269 108.822H62.3298C64.0606 108.696 65.6616 108.202 67.0806 107.427C66.8572 106.38 66.7337 105.309 66.7337 104.229C66.7337 101.999 67.2262 99.7299 68.258 97.5928C68.693 96.6857 69.7801 96.3086 70.6834 96.7441C71.5867 97.1791 71.9676 98.265 71.5314 99.1686C70.7406 100.812 70.3676 102.531 70.3676 104.229C70.3676 105.42 70.5523 106.601 70.9066 107.728L70.9076 107.73C71.8382 110.698 73.9421 113.286 76.9706 114.745C78.6074 115.536 80.3266 115.909 82.0257 115.909C84.7182 115.909 87.3545 114.966 89.438 113.257L89.4446 113.253C90.7124 112.208 91.7789 110.887 92.5404 109.309L92.5423 109.303C93.2552 107.829 93.6263 106.282 93.6942 104.74C93.7389 103.738 94.5878 102.96 95.5922 103.003C96.5927 103.05 97.3696 103.897 97.3269 104.899C97.2357 106.92 96.748 108.96 95.8136 110.887L95.8155 110.885C95.0637 112.443 94.0806 113.816 92.9265 114.986C95.0694 118.067 98.6343 120.002 102.489 120C103.205 120 103.932 119.932 104.666 119.796C107.47 119.266 109.836 117.785 111.518 115.739C113.199 113.694 114.176 111.094 114.176 108.349C114.176 108.264 114.174 108.18 114.172 108.101V108.089C114.162 107.468 114.096 106.823 113.972 106.174C113.682 104.629 113.092 103.228 112.286 101.985C111.112 100.95 109.803 99.6015 108.573 98.0979C107.266 96.4952 106.054 94.7449 105.241 92.9789C104.707 91.7959 104.326 90.6048 104.319 89.3441C104.319 88.7866 104.402 88.2095 104.606 87.652C104.812 87.0944 105.146 86.5583 105.589 86.1192V86.1211C106.298 85.4101 107.448 85.4101 108.158 86.1211C108.867 86.8282 108.867 87.9823 108.158 88.6892C108.088 88.7631 108.053 88.8174 108.018 88.9089C107.983 89.0022 107.954 89.1402 107.954 89.3439C107.946 89.8003 108.135 90.5777 108.546 91.4654C108.952 92.3532 109.557 93.3499 110.266 94.3348C111.674 96.3086 113.502 98.2475 114.878 99.4248L115.064 99.586L115.202 99.7879C116.329 101.464 117.149 103.393 117.545 105.501V105.503C117.602 105.804 117.639 106.103 117.677 106.407C117.856 106.414 118.039 106.43 118.221 106.43C120.527 106.428 122.845 105.746 124.885 104.312C126.507 103.174 127.741 101.707 128.578 100.062C129.415 98.4142 129.85 96.59 129.848 94.7544C129.848 93.035 129.464 91.312 128.687 89.7053C127.974 89.9366 127.247 90.1192 126.507 90.2472C125.518 90.4184 124.578 89.7538 124.405 88.7631C124.238 87.7743 124.902 86.8361 125.891 86.6651C129.11 86.1094 132.053 84.2368 133.88 81.2275C135.033 79.3333 135.577 77.2489 135.58 75.1837C135.58 72.1572 134.4 69.1888 132.226 66.9894ZM48.9513 53.1186C50.69 51.067 52.9959 49.608 55.4729 48.6542C57.9548 47.7003 60.621 47.2398 63.1759 47.2398C65.6635 47.2417 68.049 47.6711 70.0802 48.6036C70.9904 49.0234 71.3886 50.1034 70.9688 51.0147C70.5473 51.9275 69.4674 52.3241 68.5562 51.9043C67.1507 51.2496 65.2342 50.8708 63.1759 50.8727C61.0622 50.8727 58.8028 51.265 56.7794 52.046C54.7522 52.823 52.9746 53.9868 51.7246 55.4652V55.4671C51.0777 56.2306 49.9306 56.3279 49.164 55.6789C48.3985 55.0302 48.3025 53.884 48.9513 53.1186ZM90.3164 96.0875C88.2046 96.0913 86.2864 95.8524 84.5349 95.4464C84.5834 95.9458 84.6164 96.4993 84.6164 97.092C84.6164 98.2788 84.49 99.6328 84.1144 101.055C83.7394 102.475 83.1109 103.967 82.119 105.401C81.5479 106.225 80.4164 106.431 79.5896 105.859C78.7651 105.288 78.559 104.158 79.1313 103.33C79.8598 102.277 80.3183 101.191 80.6007 100.127C80.8823 99.062 80.9825 98.0209 80.9825 97.0922C80.9835 95.8118 80.7911 94.7492 80.6522 94.1508C79.7655 93.7488 78.9408 93.2943 78.1793 92.7968C75.1379 90.823 73.1019 88.2238 71.8208 85.7466C70.965 84.0934 70.4383 82.4887 70.1617 81.0976C70.0024 80.305 69.9238 79.5803 69.9238 78.9258C69.9238 77.9214 70.7366 77.1076 71.742 77.1076C72.7455 77.1076 73.5586 77.9214 73.5586 78.9258C73.5555 79.4582 73.6692 80.3401 73.9577 81.3427C74.2441 82.3509 74.7017 83.4991 75.3633 84.6529C76.6892 86.9648 78.7969 89.2843 82.0451 90.79C84.216 91.7964 86.9174 92.4511 90.3164 92.453C91.3199 92.453 92.1339 93.267 92.1339 94.2693C92.1339 95.2735 91.3199 96.0875 90.3164 96.0875ZM103.111 82.8168C102.736 83.7474 101.679 84.2019 100.747 83.827C99.8183 83.4561 99.3657 82.4051 99.7326 81.4723V81.4704L99.7445 81.4434C99.7559 81.412 99.7734 81.3579 99.7986 81.284C99.8473 81.1401 99.9152 80.911 99.9834 80.6272C100.123 80.054 100.261 79.244 100.261 78.3542L100.255 78.2241C97.7667 79.0711 95.4472 79.4577 93.3131 79.4577C90.0882 79.4618 87.3004 78.5777 85.0293 77.2353C82.7544 75.893 80.9865 74.1153 79.6656 72.3144C78.1639 70.2649 76.192 68.4308 73.9356 67.1293C71.6762 65.8275 69.1468 65.0546 66.4599 65.0527C64.1015 65.0584 61.6022 65.6451 58.9863 67.077C56.5084 68.4408 54.9087 70.2552 53.8779 72.2446C52.8532 74.2322 52.4248 76.4118 52.4258 78.3915C52.4208 80.2273 52.8057 81.8865 53.3106 82.9375C53.7399 83.8467 53.3524 84.9288 52.445 85.36C51.5389 85.7875 50.4546 85.4028 50.0244 84.4938C49.2377 82.8173 48.7965 80.7113 48.7917 78.3918C48.7927 76.0896 49.2512 73.5758 50.3694 71.1687C48.1166 71.6797 46.0234 71.907 44.1128 71.9048C43.0822 71.9067 42.112 71.835 41.187 71.7222C41.1229 71.963 41.0113 72.1962 40.8432 72.4004L40.8423 72.4021H40.8404L40.819 72.4294C40.7995 72.4567 40.7656 72.4994 40.7209 72.5557C40.6323 72.6723 40.5003 72.853 40.3343 73.0881C40.004 73.5561 39.5448 74.2516 39.0482 75.1279C38.0535 76.8765 36.9239 79.3378 36.3711 82.1061C36.1759 83.0911 35.2173 83.7303 34.2333 83.5321C33.2492 83.3357 32.6112 82.3799 32.8083 81.393C33.467 78.1059 34.7607 75.3183 35.8865 73.3346C36.472 72.3028 37.0101 71.4928 37.4038 70.9372C35.9216 70.4924 34.6384 69.9484 33.5924 69.3946C31.2007 68.124 29.9507 66.8476 29.8495 66.7448C29.153 66.022 29.1747 64.8722 29.8963 64.1767C30.617 63.4812 31.7632 63.5025 32.4585 64.2175L32.4604 64.2156L32.478 64.2332L32.5898 64.3401C32.6967 64.4372 32.8705 64.5868 33.1075 64.7734C33.5814 65.1481 34.314 65.6629 35.293 66.1799C37.254 67.2174 40.1857 68.2684 44.1128 68.2724C46.8697 68.2724 50.1277 67.7457 53.908 66.2927C54.8676 65.401 55.9692 64.5849 57.2396 63.8915C60.347 62.1839 63.4836 61.4183 66.4597 61.4205C69.8537 61.4205 73.0164 62.4055 75.7508 63.9829C78.488 65.5642 80.8106 67.7324 82.5958 70.1645C83.6789 71.641 85.1077 73.0648 86.8737 74.1044C88.6444 75.1438 90.7454 75.8217 93.3126 75.8239C95.0679 75.8239 97.0533 75.4995 99.2933 74.7126C98.7514 73.8306 97.9334 72.9815 96.591 72.2161C95.7169 71.7227 95.4099 70.6114 95.9033 69.7392C96.397 68.8649 97.5062 68.5578 98.3786 69.0496C100.529 70.2618 101.969 71.8664 102.802 73.5412C103.643 75.2157 103.896 76.9117 103.896 78.3552C103.888 80.872 103.158 82.6867 103.111 82.8168ZM102.431 60.5514C98.1844 60.5533 94.4698 59.4071 91.4645 57.6722C91.0439 58.2627 90.4747 58.9972 89.7431 59.8034C88.0997 61.6062 85.6811 63.7258 82.4474 64.8874C81.5023 65.2255 80.463 64.7321 80.1248 63.7861C79.7879 62.84 80.2801 61.8023 81.2252 61.4644C83.6081 60.6193 85.603 58.9447 86.9884 57.4314C87.6266 56.7399 88.1258 56.0909 88.4882 55.5859C86.6913 54.0706 85.2777 52.3455 84.3103 50.5738C83.3854 48.8681 82.8513 47.1157 82.8463 45.4062C82.8463 44.4039 83.6594 43.5917 84.6627 43.5917C85.6662 43.5917 86.4802 44.4039 86.4802 45.4062C86.4754 46.3251 86.7979 47.5509 87.501 48.8351C88.2013 50.1231 89.2649 51.4673 90.6502 52.6679C93.4242 55.0729 97.4361 56.9166 102.431 56.9166C103.433 56.9166 104.247 57.7306 104.247 58.7348C104.248 59.7395 103.434 60.5514 102.431 60.5514ZM116.757 86.1408C116.116 86.914 114.969 87.0227 114.196 86.3837C113.423 85.7445 113.314 84.5983 113.953 83.8251C115.931 81.4163 116.665 78.9956 116.671 76.674C116.675 74.5622 116.032 72.5206 115.018 70.8051C114.01 69.0857 112.627 67.7144 111.294 66.9507C110.406 66.4359 109.561 66.2008 108.893 66.2027C107.888 66.2027 107.074 65.3906 107.074 64.3861C107.074 63.3838 107.888 62.5698 108.893 62.5698C110 62.5698 111.08 62.84 112.106 63.2924C113.13 63.7431 114.101 64.3785 115.002 65.1555C116.8 66.7097 118.328 68.829 119.286 71.31C119.925 72.9634 120.308 74.7779 120.308 76.6737C120.314 79.794 119.249 83.1315 116.757 86.1408Z" fill="#E4E7EC"/>
</svg>
