<svg width="16" height="16" viewBox="0 0 16 16" fill="none" xmlns="http://www.w3.org/2000/svg">
<rect width="16" height="16" rx="2" fill="black"/>
<mask id="path-2-outside-1_848_47" maskUnits="userSpaceOnUse" x="1" y="1" width="13" height="14" fill="black">
<rect fill="white" x="1" y="1" width="13" height="14"/>
<path d="M2.45459 6.05127C2.30648 6.05127 2.23242 6.00911 2.23242 5.9248C2.23242 5.85872 2.27344 5.82568 2.35547 5.82568L2.52295 5.84277C2.65967 5.84277 2.75195 5.76644 2.7998 5.61377C2.83854 5.48389 2.85791 5.25146 2.85791 4.9165V2.50342C2.85791 2.16846 2.84196 1.94971 2.81006 1.84717C2.77816 1.74235 2.73942 1.67171 2.69385 1.63525C2.65055 1.59652 2.59359 1.57715 2.52295 1.57715L2.35547 1.59082C2.27344 1.59082 2.23242 1.55778 2.23242 1.4917C2.23242 1.40739 2.29508 1.36523 2.42041 1.36523C2.54574 1.36523 2.65511 1.37435 2.74854 1.39258C2.84196 1.41081 2.93424 1.41992 3.02539 1.41992C3.26693 1.41992 3.46745 1.40853 3.62695 1.38574C3.86849 1.35156 4.14535 1.33447 4.45752 1.33447C4.77197 1.33447 5.08415 1.3903 5.39404 1.50195C5.70622 1.61361 5.97396 1.77197 6.19727 1.97705C6.6735 2.41227 6.91162 2.98421 6.91162 3.69287C6.91162 4.36507 6.67806 4.92448 6.21094 5.37109C5.72786 5.83594 5.0944 6.06836 4.31055 6.06836C4.12142 6.06836 3.93799 6.06038 3.76025 6.04443C3.42985 6.01481 3.19059 6 3.04248 6L2.45459 6.05127ZM3.39453 4.42432C3.39453 4.82992 3.40479 5.20703 3.42529 5.55566C3.72835 5.71289 4.06901 5.7915 4.44727 5.7915C4.72298 5.7915 5.00895 5.72656 5.30518 5.59668C5.77458 5.3916 6.08105 5.02474 6.22461 4.49609C6.27702 4.30924 6.30322 4.06771 6.30322 3.77148C6.30322 3.47298 6.25195 3.18473 6.14941 2.90674C6.04915 2.62646 5.90788 2.39062 5.72559 2.19922C5.35417 1.80501 4.854 1.60791 4.2251 1.60791C3.7762 1.60791 3.51872 1.66715 3.45264 1.78564C3.41846 1.84945 3.40023 1.92236 3.39795 2.00439C3.39567 2.08415 3.39453 2.16276 3.39453 2.24023V4.42432ZM8.92863 3.68604C8.92863 3.34196 8.99243 3.02637 9.12004 2.73926C9.24992 2.44987 9.42424 2.2015 9.64299 1.99414C9.86402 1.78451 10.1192 1.62272 10.4086 1.50879C10.698 1.39258 11.0102 1.33447 11.3451 1.33447C11.6801 1.33447 11.9911 1.396 12.2782 1.51904C12.5654 1.63981 12.8114 1.80729 13.0165 2.02148C13.4472 2.47493 13.6625 3.05029 13.6625 3.74756C13.6625 4.40837 13.4404 4.96094 12.996 5.40527C12.5426 5.85872 11.9661 6.08545 11.2665 6.08545C10.5829 6.08545 10.0201 5.85645 9.57805 5.39844C9.1451 4.94727 8.92863 4.37646 8.92863 3.68604ZM9.51311 3.49121C9.51311 3.78743 9.56096 4.0791 9.65666 4.36621C9.75464 4.65104 9.8925 4.89941 10.0702 5.11133C10.4508 5.57161 10.9316 5.80176 11.5126 5.80176C11.9615 5.80176 12.3295 5.63314 12.6166 5.2959C12.9128 4.94954 13.061 4.49382 13.061 3.92871C13.061 3.26107 12.8821 2.70736 12.5243 2.26758C12.1689 1.83464 11.7188 1.61816 11.1742 1.61816C10.7253 1.61816 10.3391 1.78906 10.0155 2.13086C9.68059 2.48633 9.51311 2.93978 9.51311 3.49121ZM6.67578 10.4077C6.67578 10.4966 6.64502 10.541 6.5835 10.541C6.52881 10.541 6.48324 10.4863 6.44678 10.377C6.4126 10.2653 6.34652 10.1605 6.24854 10.0625C6.15055 9.96452 6.0332 9.88249 5.89648 9.81641C5.61165 9.67741 5.30518 9.60791 4.97705 9.60791C4.6512 9.60791 4.36865 9.65234 4.12939 9.74121C3.89242 9.8278 3.68848 9.95312 3.51758 10.1172C3.16211 10.4658 2.98438 10.9364 2.98438 11.5288C2.98438 12.1851 3.1849 12.7262 3.58594 13.1523C3.9847 13.5762 4.49512 13.7881 5.11719 13.7881C5.8099 13.7881 6.34538 13.4702 6.72363 12.8345C6.7487 12.7935 6.7749 12.7707 6.80225 12.7661C6.82731 12.7661 6.85238 12.7935 6.87744 12.8481C6.90251 12.9028 6.91504 12.9644 6.91504 13.0327C6.91504 13.1466 6.8182 13.2948 6.62451 13.4771C6.43083 13.6593 6.19499 13.8063 5.91699 13.918C5.64128 14.0296 5.31885 14.0854 4.94971 14.0854C4.58285 14.0854 4.23421 14.0262 3.90381 13.9077C3.57568 13.7869 3.29655 13.6229 3.06641 13.4155C2.58333 12.9826 2.3418 12.4414 2.3418 11.792C2.3418 11.0583 2.58561 10.4658 3.07324 10.0146C3.56087 9.5612 4.20231 9.33447 4.99756 9.33447C5.57178 9.33447 6.04688 9.41081 6.42285 9.56348C6.49577 9.59538 6.54362 9.62614 6.56641 9.65576C6.61198 9.71956 6.63818 9.81527 6.64502 9.94287C6.65413 10.0682 6.65983 10.1548 6.66211 10.2026C6.67122 10.3143 6.67578 10.3826 6.67578 10.4077ZM10.2616 9.59082L10.0976 9.57715C9.95858 9.57715 9.86402 9.65348 9.81389 9.80615C9.77059 9.94059 9.74895 10.173 9.74895 10.5034V12.1919C9.74895 12.5086 9.77173 12.7365 9.8173 12.8755C9.86288 13.0122 9.92668 13.1375 10.0087 13.2515C10.093 13.3654 10.191 13.4622 10.3027 13.542C10.5282 13.7015 10.7823 13.7812 11.0649 13.7812C11.3497 13.7812 11.5844 13.7482 11.769 13.6821C11.9535 13.6138 12.1005 13.5124 12.2099 13.3779C12.4127 13.1318 12.5141 12.7308 12.5141 12.1748L12.5072 10.5034C12.5072 10.1685 12.4913 9.94971 12.4594 9.84717C12.4275 9.74235 12.3888 9.67171 12.3432 9.63525C12.2999 9.59652 12.2429 9.57715 12.1723 9.57715L12.0048 9.59082C11.9228 9.59082 11.8818 9.55778 11.8818 9.4917C11.8818 9.40739 11.9444 9.36523 12.0697 9.36523C12.1951 9.36523 12.3044 9.37435 12.3979 9.39258C12.4913 9.41081 12.5893 9.41992 12.6918 9.41992L13.2558 9.36523C13.4016 9.36523 13.4745 9.40739 13.4745 9.4917C13.4745 9.55778 13.4335 9.59082 13.3515 9.59082L13.1874 9.57715C13.0484 9.57715 12.9561 9.65348 12.9106 9.80615C12.8718 9.93831 12.8525 10.1707 12.8525 10.5034L12.8456 12.3491C12.8456 12.8573 12.6838 13.2731 12.3603 13.5967C12.0344 13.9225 11.6003 14.0854 11.058 14.0854C10.4679 14.0854 10.0019 13.9225 9.66008 13.5967C9.31145 13.2594 9.13713 12.7912 9.13713 12.1919V10.5034C9.13713 10.173 9.12004 9.9554 9.08586 9.85059C9.05168 9.74349 9.0118 9.67171 8.96623 9.63525C8.92066 9.59652 8.86141 9.57715 8.7885 9.57715L8.62102 9.59082C8.53898 9.59082 8.49797 9.55778 8.49797 9.4917C8.49797 9.40739 8.56063 9.36523 8.68596 9.36523C8.81356 9.36523 8.93775 9.37435 9.05852 9.39258C9.17928 9.41081 9.30575 9.41992 9.43791 9.41992C9.57235 9.41992 9.70109 9.41081 9.82414 9.39258C9.94947 9.37435 10.0737 9.36523 10.1967 9.36523C10.322 9.36523 10.3847 9.40739 10.3847 9.4917C10.3847 9.55778 10.3437 9.59082 10.2616 9.59082Z"/>
</mask>
<path d="M2.45459 6.05127C2.30648 6.05127 2.23242 6.00911 2.23242 5.9248C2.23242 5.85872 2.27344 5.82568 2.35547 5.82568L2.52295 5.84277C2.65967 5.84277 2.75195 5.76644 2.7998 5.61377C2.83854 5.48389 2.85791 5.25146 2.85791 4.9165V2.50342C2.85791 2.16846 2.84196 1.94971 2.81006 1.84717C2.77816 1.74235 2.73942 1.67171 2.69385 1.63525C2.65055 1.59652 2.59359 1.57715 2.52295 1.57715L2.35547 1.59082C2.27344 1.59082 2.23242 1.55778 2.23242 1.4917C2.23242 1.40739 2.29508 1.36523 2.42041 1.36523C2.54574 1.36523 2.65511 1.37435 2.74854 1.39258C2.84196 1.41081 2.93424 1.41992 3.02539 1.41992C3.26693 1.41992 3.46745 1.40853 3.62695 1.38574C3.86849 1.35156 4.14535 1.33447 4.45752 1.33447C4.77197 1.33447 5.08415 1.3903 5.39404 1.50195C5.70622 1.61361 5.97396 1.77197 6.19727 1.97705C6.6735 2.41227 6.91162 2.98421 6.91162 3.69287C6.91162 4.36507 6.67806 4.92448 6.21094 5.37109C5.72786 5.83594 5.0944 6.06836 4.31055 6.06836C4.12142 6.06836 3.93799 6.06038 3.76025 6.04443C3.42985 6.01481 3.19059 6 3.04248 6L2.45459 6.05127ZM3.39453 4.42432C3.39453 4.82992 3.40479 5.20703 3.42529 5.55566C3.72835 5.71289 4.06901 5.7915 4.44727 5.7915C4.72298 5.7915 5.00895 5.72656 5.30518 5.59668C5.77458 5.3916 6.08105 5.02474 6.22461 4.49609C6.27702 4.30924 6.30322 4.06771 6.30322 3.77148C6.30322 3.47298 6.25195 3.18473 6.14941 2.90674C6.04915 2.62646 5.90788 2.39062 5.72559 2.19922C5.35417 1.80501 4.854 1.60791 4.2251 1.60791C3.7762 1.60791 3.51872 1.66715 3.45264 1.78564C3.41846 1.84945 3.40023 1.92236 3.39795 2.00439C3.39567 2.08415 3.39453 2.16276 3.39453 2.24023V4.42432ZM8.92863 3.68604C8.92863 3.34196 8.99243 3.02637 9.12004 2.73926C9.24992 2.44987 9.42424 2.2015 9.64299 1.99414C9.86402 1.78451 10.1192 1.62272 10.4086 1.50879C10.698 1.39258 11.0102 1.33447 11.3451 1.33447C11.6801 1.33447 11.9911 1.396 12.2782 1.51904C12.5654 1.63981 12.8114 1.80729 13.0165 2.02148C13.4472 2.47493 13.6625 3.05029 13.6625 3.74756C13.6625 4.40837 13.4404 4.96094 12.996 5.40527C12.5426 5.85872 11.9661 6.08545 11.2665 6.08545C10.5829 6.08545 10.0201 5.85645 9.57805 5.39844C9.1451 4.94727 8.92863 4.37646 8.92863 3.68604ZM9.51311 3.49121C9.51311 3.78743 9.56096 4.0791 9.65666 4.36621C9.75464 4.65104 9.8925 4.89941 10.0702 5.11133C10.4508 5.57161 10.9316 5.80176 11.5126 5.80176C11.9615 5.80176 12.3295 5.63314 12.6166 5.2959C12.9128 4.94954 13.061 4.49382 13.061 3.92871C13.061 3.26107 12.8821 2.70736 12.5243 2.26758C12.1689 1.83464 11.7188 1.61816 11.1742 1.61816C10.7253 1.61816 10.3391 1.78906 10.0155 2.13086C9.68059 2.48633 9.51311 2.93978 9.51311 3.49121ZM6.67578 10.4077C6.67578 10.4966 6.64502 10.541 6.5835 10.541C6.52881 10.541 6.48324 10.4863 6.44678 10.377C6.4126 10.2653 6.34652 10.1605 6.24854 10.0625C6.15055 9.96452 6.0332 9.88249 5.89648 9.81641C5.61165 9.67741 5.30518 9.60791 4.97705 9.60791C4.6512 9.60791 4.36865 9.65234 4.12939 9.74121C3.89242 9.8278 3.68848 9.95312 3.51758 10.1172C3.16211 10.4658 2.98438 10.9364 2.98438 11.5288C2.98438 12.1851 3.1849 12.7262 3.58594 13.1523C3.9847 13.5762 4.49512 13.7881 5.11719 13.7881C5.8099 13.7881 6.34538 13.4702 6.72363 12.8345C6.7487 12.7935 6.7749 12.7707 6.80225 12.7661C6.82731 12.7661 6.85238 12.7935 6.87744 12.8481C6.90251 12.9028 6.91504 12.9644 6.91504 13.0327C6.91504 13.1466 6.8182 13.2948 6.62451 13.4771C6.43083 13.6593 6.19499 13.8063 5.91699 13.918C5.64128 14.0296 5.31885 14.0854 4.94971 14.0854C4.58285 14.0854 4.23421 14.0262 3.90381 13.9077C3.57568 13.7869 3.29655 13.6229 3.06641 13.4155C2.58333 12.9826 2.3418 12.4414 2.3418 11.792C2.3418 11.0583 2.58561 10.4658 3.07324 10.0146C3.56087 9.5612 4.20231 9.33447 4.99756 9.33447C5.57178 9.33447 6.04688 9.41081 6.42285 9.56348C6.49577 9.59538 6.54362 9.62614 6.56641 9.65576C6.61198 9.71956 6.63818 9.81527 6.64502 9.94287C6.65413 10.0682 6.65983 10.1548 6.66211 10.2026C6.67122 10.3143 6.67578 10.3826 6.67578 10.4077ZM10.2616 9.59082L10.0976 9.57715C9.95858 9.57715 9.86402 9.65348 9.81389 9.80615C9.77059 9.94059 9.74895 10.173 9.74895 10.5034V12.1919C9.74895 12.5086 9.77173 12.7365 9.8173 12.8755C9.86288 13.0122 9.92668 13.1375 10.0087 13.2515C10.093 13.3654 10.191 13.4622 10.3027 13.542C10.5282 13.7015 10.7823 13.7812 11.0649 13.7812C11.3497 13.7812 11.5844 13.7482 11.769 13.6821C11.9535 13.6138 12.1005 13.5124 12.2099 13.3779C12.4127 13.1318 12.5141 12.7308 12.5141 12.1748L12.5072 10.5034C12.5072 10.1685 12.4913 9.94971 12.4594 9.84717C12.4275 9.74235 12.3888 9.67171 12.3432 9.63525C12.2999 9.59652 12.2429 9.57715 12.1723 9.57715L12.0048 9.59082C11.9228 9.59082 11.8818 9.55778 11.8818 9.4917C11.8818 9.40739 11.9444 9.36523 12.0697 9.36523C12.1951 9.36523 12.3044 9.37435 12.3979 9.39258C12.4913 9.41081 12.5893 9.41992 12.6918 9.41992L13.2558 9.36523C13.4016 9.36523 13.4745 9.40739 13.4745 9.4917C13.4745 9.55778 13.4335 9.59082 13.3515 9.59082L13.1874 9.57715C13.0484 9.57715 12.9561 9.65348 12.9106 9.80615C12.8718 9.93831 12.8525 10.1707 12.8525 10.5034L12.8456 12.3491C12.8456 12.8573 12.6838 13.2731 12.3603 13.5967C12.0344 13.9225 11.6003 14.0854 11.058 14.0854C10.4679 14.0854 10.0019 13.9225 9.66008 13.5967C9.31145 13.2594 9.13713 12.7912 9.13713 12.1919V10.5034C9.13713 10.173 9.12004 9.9554 9.08586 9.85059C9.05168 9.74349 9.0118 9.67171 8.96623 9.63525C8.92066 9.59652 8.86141 9.57715 8.7885 9.57715L8.62102 9.59082C8.53898 9.59082 8.49797 9.55778 8.49797 9.4917C8.49797 9.40739 8.56063 9.36523 8.68596 9.36523C8.81356 9.36523 8.93775 9.37435 9.05852 9.39258C9.17928 9.41081 9.30575 9.41992 9.43791 9.41992C9.57235 9.41992 9.70109 9.41081 9.82414 9.39258C9.94947 9.37435 10.0737 9.36523 10.1967 9.36523C10.322 9.36523 10.3847 9.40739 10.3847 9.4917C10.3847 9.55778 10.3437 9.59082 10.2616 9.59082Z" fill="white"/>
<path d="M2.45459 6.05127V6.35127H2.46765L2.48065 6.35014L2.45459 6.05127ZM2.35547 5.82568L2.38592 5.52723L2.37074 5.52568H2.35547V5.82568ZM2.52295 5.84277L2.4925 6.14122L2.50768 6.14277H2.52295V5.84277ZM2.7998 5.61377L3.0861 5.7035L3.08729 5.69951L2.7998 5.61377ZM2.81006 1.84717L2.52305 1.93452L2.5236 1.93629L2.81006 1.84717ZM2.69385 1.63525L2.49381 1.85883L2.49998 1.86434L2.50644 1.86951L2.69385 1.63525ZM2.52295 1.57715V1.27715H2.51072L2.49854 1.27814L2.52295 1.57715ZM2.35547 1.59082V1.89082H2.36769L2.37988 1.88983L2.35547 1.59082ZM3.62695 1.38574L3.58492 1.0887L3.58453 1.08876L3.62695 1.38574ZM5.39404 1.50195L5.29235 1.78419L5.29301 1.78443L5.39404 1.50195ZM6.19727 1.97705L5.99434 2.19801L5.99488 2.1985L6.19727 1.97705ZM6.21094 5.37109L6.00362 5.15425L6.00292 5.15492L6.21094 5.37109ZM3.76025 6.04443L3.78707 5.74563L3.78704 5.74563L3.76025 6.04443ZM3.04248 6V5.7H3.02942L3.01642 5.70113L3.04248 6ZM3.42529 5.55566L3.12581 5.57328L3.13582 5.74346L3.28714 5.82196L3.42529 5.55566ZM5.30518 5.59668L5.18507 5.32177L5.18471 5.32193L5.30518 5.59668ZM6.22461 4.49609L5.93575 4.41507L5.93509 4.41748L6.22461 4.49609ZM6.14941 2.90674L5.86693 3.00779L5.86795 3.01056L6.14941 2.90674ZM5.72559 2.19922L5.50723 2.40495L5.50834 2.40612L5.72559 2.19922ZM3.45264 1.78564L3.19059 1.6395L3.18819 1.64398L3.45264 1.78564ZM3.39795 2.00439L3.69783 2.01296L3.69783 2.01272L3.39795 2.00439ZM2.45459 6.05127V5.75127C2.43092 5.75127 2.41801 5.74951 2.41332 5.74862C2.40807 5.74763 2.41848 5.74875 2.43637 5.75893C2.45609 5.77016 2.48377 5.79197 2.50519 5.82854C2.52669 5.86527 2.53242 5.90074 2.53242 5.9248H2.23242H1.93242C1.93242 6.07622 2.01006 6.20666 2.13955 6.28037C2.24396 6.3398 2.36191 6.35127 2.45459 6.35127V6.05127ZM2.23242 5.9248H2.53242C2.53242 5.95726 2.51916 6.02949 2.45138 6.08409C2.39601 6.1287 2.34687 6.12568 2.35547 6.12568V5.82568V5.52568C2.28204 5.52568 2.17138 5.53919 2.07498 5.61684C1.9662 5.70447 1.93242 5.82627 1.93242 5.9248H2.23242ZM2.35547 5.82568L2.32501 6.12413L2.4925 6.14122L2.52295 5.84277L2.5534 5.54432L2.38592 5.52723L2.35547 5.82568ZM2.52295 5.84277V6.14277C2.65067 6.14277 2.77845 6.10558 2.88591 6.01669C2.98945 5.93105 3.05049 5.81702 3.08607 5.7035L2.7998 5.61377L2.51354 5.52404C2.50757 5.5431 2.50221 5.55325 2.49969 5.55737C2.4974 5.56112 2.49815 5.55878 2.50349 5.55436C2.50606 5.55223 2.50917 5.55007 2.51269 5.54812C2.51621 5.54617 2.51951 5.54478 2.52229 5.54386C2.52802 5.54195 2.5291 5.54277 2.52295 5.54277V5.84277ZM2.7998 5.61377L3.08729 5.69951C3.13995 5.52295 3.15791 5.25026 3.15791 4.9165H2.85791H2.55791C2.55791 5.25267 2.53713 5.44482 2.51232 5.52803L2.7998 5.61377ZM2.85791 4.9165H3.15791V2.50342H2.85791H2.55791V4.9165H2.85791ZM2.85791 2.50342H3.15791C3.15791 2.33202 3.15386 2.18567 3.14515 2.06632C3.13686 1.9526 3.12317 1.84373 3.09652 1.75805L2.81006 1.84717L2.5236 1.93629C2.52885 1.95315 2.53908 2.00492 2.54674 2.10995C2.55399 2.20935 2.55791 2.33986 2.55791 2.50342H2.85791ZM2.81006 1.84717L3.09706 1.75982C3.06074 1.64049 3.00015 1.49611 2.88126 1.40099L2.69385 1.63525L2.50644 1.86951C2.48897 1.85554 2.48694 1.84688 2.49404 1.85983C2.50066 1.87191 2.51113 1.89532 2.52306 1.93452L2.81006 1.84717ZM2.69385 1.63525L2.89389 1.41168C2.78429 1.31362 2.65069 1.27715 2.52295 1.27715V1.57715V1.87715C2.531 1.87715 2.52957 1.87825 2.52208 1.87571C2.51375 1.87288 2.50331 1.86733 2.49381 1.85883L2.69385 1.63525ZM2.52295 1.57715L2.49854 1.27814L2.33106 1.29181L2.35547 1.59082L2.37988 1.88983L2.54736 1.87615L2.52295 1.57715ZM2.35547 1.59082V1.29082C2.34687 1.29082 2.39601 1.28781 2.45138 1.33241C2.51916 1.38701 2.53242 1.45924 2.53242 1.4917H2.23242H1.93242C1.93242 1.59024 1.9662 1.71203 2.07498 1.79967C2.17138 1.87732 2.28204 1.89082 2.35547 1.89082V1.59082ZM2.23242 1.4917H2.53242C2.53242 1.50792 2.52928 1.53666 2.51298 1.56957C2.49604 1.60376 2.47134 1.62931 2.44687 1.64577C2.40577 1.67342 2.38195 1.66523 2.42041 1.66523V1.36523V1.06523C2.33354 1.06523 2.21573 1.07813 2.11197 1.14793C1.98708 1.23195 1.93242 1.36331 1.93242 1.4917H2.23242ZM2.42041 1.36523V1.66523C2.53212 1.66523 2.62144 1.67344 2.69108 1.68703L2.74854 1.39258L2.80599 1.09813C2.68878 1.07526 2.55935 1.06523 2.42041 1.06523V1.36523ZM2.74854 1.39258L2.69108 1.68703C2.8026 1.70878 2.91413 1.71992 3.02539 1.71992V1.41992V1.11992C2.95436 1.11992 2.88132 1.11283 2.80599 1.09813L2.74854 1.39258ZM3.02539 1.41992V1.71992C3.27486 1.71992 3.49075 1.70825 3.66938 1.68273L3.62695 1.38574L3.58453 1.08876C3.44415 1.10881 3.25899 1.11992 3.02539 1.11992V1.41992ZM3.62695 1.38574L3.66899 1.68278C3.89338 1.65103 4.15573 1.63447 4.45752 1.63447V1.33447V1.03447C4.13496 1.03447 3.8436 1.0521 3.58492 1.0887L3.62695 1.38574ZM4.45752 1.33447V1.63447C4.73568 1.63447 5.01351 1.68373 5.29235 1.78419L5.39404 1.50195L5.49573 1.21971C5.15479 1.09687 4.80827 1.03447 4.45752 1.03447V1.33447ZM5.39404 1.50195L5.29301 1.78443C5.57101 1.88386 5.80321 2.02248 5.99434 2.19801L6.19727 1.97705L6.40019 1.75609C6.14471 1.52147 5.84143 1.34336 5.49507 1.21948L5.39404 1.50195ZM6.19727 1.97705L5.99488 2.1985C6.40241 2.57094 6.61162 3.05921 6.61162 3.69287H6.91162H7.21162C7.21162 2.90921 6.94459 2.25361 6.39965 1.7556L6.19727 1.97705ZM6.91162 3.69287H6.61162C6.61162 4.28686 6.40893 4.76674 6.00362 5.15426L6.21094 5.37109L6.41826 5.58793C6.94719 5.08222 7.21162 4.44328 7.21162 3.69287H6.91162ZM6.21094 5.37109L6.00292 5.15492C5.58513 5.55695 5.03091 5.76836 4.31055 5.76836V6.06836V6.36836C5.15789 6.36836 5.8706 6.11492 6.41895 5.58727L6.21094 5.37109ZM4.31055 6.06836V5.76836C4.12984 5.76836 3.95538 5.76074 3.78707 5.74563L3.76025 6.04443L3.73344 6.34323C3.9206 6.36003 4.113 6.36836 4.31055 6.36836V6.06836ZM3.76025 6.04443L3.78704 5.74563C3.45586 5.71594 3.20508 5.7 3.04248 5.7V6V6.3C3.17611 6.3 3.40384 6.31368 3.73346 6.34324L3.76025 6.04443ZM3.04248 6L3.01642 5.70113L2.42853 5.7524L2.45459 6.05127L2.48065 6.35014L3.06854 6.29887L3.04248 6ZM3.39453 4.42432H3.09453C3.09453 4.83488 3.10491 5.21794 3.12581 5.57328L3.42529 5.55566L3.72478 5.53805C3.70466 5.19612 3.69453 4.82495 3.69453 4.42432H3.39453ZM3.42529 5.55566L3.28714 5.82196C3.63733 6.00364 4.0262 6.0915 4.44727 6.0915V5.7915V5.4915C4.11182 5.4915 3.81938 5.42214 3.56345 5.28937L3.42529 5.55566ZM4.44727 5.7915V6.0915C4.771 6.0915 5.09794 6.01512 5.42564 5.87143L5.30518 5.59668L5.18471 5.32193C4.91997 5.43801 4.67496 5.4915 4.44727 5.4915V5.7915ZM5.30518 5.59668L5.42528 5.87159C5.98439 5.62732 6.34865 5.18408 6.51412 4.57471L6.22461 4.49609L5.93509 4.41748C5.81346 4.8654 5.56476 5.15589 5.18507 5.32177L5.30518 5.59668ZM6.22461 4.49609L6.51346 4.57711C6.57607 4.35391 6.60322 4.08232 6.60322 3.77148H6.30322H6.00322C6.00322 4.0531 5.97797 4.26458 5.93576 4.41507L6.22461 4.49609ZM6.30322 3.77148H6.60322C6.60322 3.43782 6.54577 3.11441 6.43088 2.80292L6.14941 2.90674L5.86795 3.01056C5.95814 3.25506 6.00322 3.50814 6.00322 3.77148H6.30322ZM6.14941 2.90674L6.43188 2.80569C6.31929 2.49095 6.15745 2.21768 5.94283 1.99232L5.72559 2.19922L5.50834 2.40612C5.6583 2.56357 5.77901 2.76198 5.86694 3.00778L6.14941 2.90674ZM5.72559 2.19922L5.94393 1.99349C5.50657 1.5293 4.92212 1.30791 4.2251 1.30791V1.60791V1.90791C4.78588 1.90791 5.20176 2.08073 5.50724 2.40495L5.72559 2.19922ZM4.2251 1.60791V1.30791C3.99138 1.30791 3.78889 1.32297 3.62804 1.35998C3.48655 1.39254 3.2903 1.46081 3.19063 1.63952L3.45264 1.78564L3.71465 1.93177C3.68106 1.99199 3.64659 1.97139 3.76258 1.9447C3.85922 1.92247 4.00992 1.90791 4.2251 1.90791V1.60791ZM3.45264 1.78564L3.18819 1.64398C3.12922 1.75407 3.10146 1.87371 3.09806 1.99606L3.39795 2.00439L3.69783 2.01272C3.69899 1.97101 3.7077 1.94483 3.71708 1.92731L3.45264 1.78564ZM3.39795 2.00439L3.09807 1.99583C3.09571 2.07835 3.09453 2.15982 3.09453 2.24023H3.39453H3.69453C3.69453 2.1657 3.69563 2.08994 3.69783 2.01296L3.39795 2.00439ZM3.39453 2.24023H3.09453V4.42432H3.39453H3.69453V2.24023H3.39453ZM9.12004 2.73926L8.84634 2.61642L8.8459 2.61742L9.12004 2.73926ZM9.64299 1.99414L9.84937 2.21187L9.84944 2.21181L9.64299 1.99414ZM10.4086 1.50879L10.5185 1.78794L10.5204 1.78718L10.4086 1.50879ZM12.2782 1.51904L12.1601 1.79479L12.1619 1.79557L12.2782 1.51904ZM13.0165 2.02148L13.2341 1.81489L13.2332 1.81401L13.0165 2.02148ZM9.57805 5.39844L9.36159 5.60615L9.36219 5.60678L9.57805 5.39844ZM9.65666 4.36621L9.37204 4.46108L9.37298 4.4638L9.65666 4.36621ZM10.0702 5.11133L10.3015 4.92017L10.3001 4.91854L10.0702 5.11133ZM12.6166 5.2959L12.3886 5.10091L12.3882 5.10142L12.6166 5.2959ZM12.5243 2.26758L12.7571 2.07826L12.7562 2.07721L12.5243 2.26758ZM10.0155 2.13086L9.79768 1.92462L9.79721 1.92512L10.0155 2.13086ZM8.92863 3.68604H9.22863C9.22863 3.37991 9.28519 3.10633 9.39418 2.8611L9.12004 2.73926L8.8459 2.61742C8.69968 2.9464 8.62863 3.30401 8.62863 3.68604H8.92863ZM9.12004 2.73926L9.39374 2.8621C9.50844 2.60653 9.66051 2.39089 9.84937 2.21187L9.64299 1.99414L9.4366 1.77641C9.18796 2.0121 8.9914 2.29321 8.84634 2.61642L9.12004 2.73926ZM9.64299 1.99414L9.84944 2.21181C10.0419 2.02923 10.2642 1.88806 10.5185 1.78793L10.4086 1.50879L10.2987 1.22964C9.97426 1.35738 9.6861 1.53978 9.43654 1.77647L9.64299 1.99414ZM10.4086 1.50879L10.5204 1.78718C10.7717 1.68627 11.0456 1.63447 11.3451 1.63447V1.33447V1.03447C10.9747 1.03447 10.6243 1.09888 10.2968 1.2304L10.4086 1.50879ZM11.3451 1.33447V1.63447C11.6424 1.63447 11.9129 1.68888 12.1601 1.79479L12.2782 1.51904L12.3964 1.2433C12.0693 1.10312 11.7177 1.03447 11.3451 1.03447V1.33447ZM12.2782 1.51904L12.1619 1.79557C12.4131 1.90125 12.6246 2.04589 12.7998 2.22896L13.0165 2.02148L13.2332 1.81401C12.9983 1.56869 12.7176 1.37837 12.3946 1.24251L12.2782 1.51904ZM13.0165 2.02148L12.799 2.22808C13.1705 2.61919 13.3625 3.11759 13.3625 3.74756H13.6625H13.9625C13.9625 2.983 13.7239 2.33068 13.2341 1.81489L13.0165 2.02148ZM13.6625 3.74756H13.3625C13.3625 4.33337 13.1688 4.80822 12.7839 5.19314L12.996 5.40527L13.2081 5.61741C13.7119 5.11366 13.9625 4.48336 13.9625 3.74756H13.6625ZM12.996 5.40527L12.7839 5.19314C12.3921 5.58494 11.8945 5.78545 11.2665 5.78545V6.08545V6.38545C12.0377 6.38545 12.693 6.13251 13.2081 5.61741L12.996 5.40527ZM11.2665 6.08545V5.78545C10.6576 5.78545 10.1749 5.58488 9.7939 5.1901L9.57805 5.39844L9.36219 5.60678C9.86527 6.12801 10.5082 6.38545 11.2665 6.38545V6.08545ZM9.57805 5.39844L9.79451 5.19072C9.42097 4.80145 9.22863 4.30784 9.22863 3.68604H8.92863H8.62863C8.62863 4.44509 8.86924 5.09308 9.36159 5.60615L9.57805 5.39844ZM9.51311 3.49121H9.21311C9.21311 3.82038 9.26638 4.14405 9.37206 4.46108L9.65666 4.36621L9.94127 4.27134C9.85553 4.01415 9.81311 3.75449 9.81311 3.49121H9.51311ZM9.65666 4.36621L9.37298 4.4638C9.48185 4.78029 9.637 5.06162 9.84038 5.30411L10.0702 5.11133L10.3001 4.91854C10.148 4.73721 10.0274 4.5218 9.94034 4.26862L9.65666 4.36621ZM10.0702 5.11133L9.83902 5.30248C10.2747 5.82949 10.8393 6.10176 11.5126 6.10176V5.80176V5.50176C11.0238 5.50176 10.6268 5.31374 10.3014 4.92017L10.0702 5.11133ZM11.5126 5.80176V6.10176C12.0481 6.10176 12.5001 5.8956 12.8451 5.49037L12.6166 5.2959L12.3882 5.10142C12.159 5.37068 11.875 5.50176 11.5126 5.50176V5.80176ZM12.6166 5.2959L12.8446 5.49089C13.1977 5.07807 13.361 4.54756 13.361 3.92871H13.061H12.761C12.761 4.44007 12.628 4.82102 12.3886 5.10091L12.6166 5.2959ZM13.061 3.92871H13.361C13.361 3.20491 13.1658 2.58069 12.7571 2.07826L12.5243 2.26758L12.2916 2.45689C12.5984 2.83402 12.761 3.31722 12.761 3.92871H13.061ZM12.5243 2.26758L12.7562 2.07721C12.3456 1.57716 11.8116 1.31816 11.1742 1.31816V1.61816V1.91816C11.6261 1.91816 11.9921 2.09211 12.2925 2.45795L12.5243 2.26758ZM11.1742 1.61816V1.31816C10.6385 1.31816 10.1748 1.52623 9.79768 1.92462L10.0155 2.13086L10.2334 2.3371C10.5034 2.0519 10.8121 1.91816 11.1742 1.91816V1.61816ZM10.0155 2.13086L9.79721 1.92512C9.40292 2.34355 9.21311 2.87396 9.21311 3.49121H9.51311H9.81311C9.81311 3.0056 9.95826 2.6291 10.2339 2.3366L10.0155 2.13086ZM6.44678 10.377L6.15983 10.4648L6.16217 10.4718L6.44678 10.377ZM6.24854 10.0625L6.0364 10.2746L6.24854 10.0625ZM5.89648 9.81641L5.76491 10.086L5.76593 10.0865L5.89648 9.81641ZM4.12939 9.74121L4.23235 10.023L4.23385 10.0224L4.12939 9.74121ZM3.51758 10.1172L3.30981 9.90076L3.30752 9.90301L3.51758 10.1172ZM3.58594 13.1523L3.80443 12.9468L3.8044 12.9467L3.58594 13.1523ZM6.72363 12.8345L6.46763 12.678L6.46582 12.6811L6.72363 12.8345ZM6.80225 12.7661V12.4661H6.77742L6.75293 12.4702L6.80225 12.7661ZM5.91699 13.918L5.80518 13.6396L5.80439 13.6399L5.91699 13.918ZM3.90381 13.9077L3.80018 14.1893L3.80254 14.1901L3.90381 13.9077ZM3.06641 13.4155L3.26722 13.1926L3.26663 13.1921L3.06641 13.4155ZM3.07324 10.0146L3.27698 10.2349L3.27753 10.2343L3.07324 10.0146ZM6.42285 9.56348L6.54314 9.28853L6.53572 9.28552L6.42285 9.56348ZM6.56641 9.65576L6.81068 9.48128L6.80419 9.47285L6.56641 9.65576ZM6.64502 9.94287L6.34539 9.95892L6.34581 9.96463L6.64502 9.94287ZM6.66211 10.2026L6.36228 10.2169L6.3631 10.227L6.66211 10.2026ZM6.67578 10.4077H6.37578C6.37578 10.4268 6.3708 10.3879 6.40605 10.3369C6.42623 10.3078 6.45585 10.2806 6.49373 10.2624C6.53015 10.2448 6.56277 10.241 6.5835 10.241V10.541V10.841C6.6969 10.841 6.81952 10.7938 6.89937 10.6785C6.96538 10.5831 6.97578 10.4775 6.97578 10.4077H6.67578ZM6.5835 10.541V10.241C6.62227 10.241 6.65833 10.2513 6.68785 10.2674C6.71555 10.2825 6.73173 10.2995 6.73877 10.3079C6.75017 10.3216 6.7442 10.3205 6.73138 10.2821L6.44678 10.377L6.16217 10.4718C6.18581 10.5427 6.22086 10.6237 6.27783 10.6921C6.33916 10.7656 6.44182 10.841 6.5835 10.841V10.541ZM6.44678 10.377L6.73364 10.2891C6.68264 10.1225 6.58689 9.97659 6.46067 9.85037L6.24854 10.0625L6.0364 10.2746C6.10614 10.3444 6.14256 10.4081 6.15992 10.4648L6.44678 10.377ZM6.24854 10.0625L6.46067 9.85037C6.33676 9.72646 6.19111 9.6256 6.02703 9.5463L5.89648 9.81641L5.76593 10.0865C5.8753 10.1394 5.96435 10.2026 6.0364 10.2746L6.24854 10.0625ZM5.89648 9.81641L6.02805 9.5468C5.70078 9.38709 5.34911 9.30791 4.97705 9.30791V9.60791V9.90791C5.26124 9.90791 5.52253 9.96773 5.76491 10.086L5.89648 9.81641ZM4.97705 9.60791V9.30791C4.62496 9.30791 4.30544 9.3558 4.02494 9.45998L4.12939 9.74121L4.23385 10.0224C4.43187 9.94889 4.67745 9.90791 4.97705 9.90791V9.60791ZM4.12939 9.74121L4.02644 9.45943C3.75295 9.55936 3.51266 9.70604 3.30982 9.90077L3.51758 10.1172L3.72534 10.3336C3.86429 10.2002 4.03188 10.0962 4.23235 10.023L4.12939 9.74121ZM3.51758 10.1172L3.30752 9.90301C2.88374 10.3186 2.68437 10.8723 2.68437 11.5288H2.98438H3.28438C3.28438 11.0005 3.44048 10.613 3.72764 10.3314L3.51758 10.1172ZM2.98438 11.5288H2.68437C2.68437 12.2514 2.90755 12.8693 3.36748 13.358L3.58594 13.1523L3.8044 12.9467C3.46224 12.5832 3.28438 12.1187 3.28438 11.5288H2.98438ZM3.58594 13.1523L3.36744 13.3579C3.82713 13.8465 4.41876 14.0881 5.11719 14.0881V13.7881V13.4881C4.57147 13.4881 4.14227 13.3058 3.80443 12.9468L3.58594 13.1523ZM5.11719 13.7881V14.0881C5.92412 14.0881 6.55358 13.707 6.98145 12.9879L6.72363 12.8345L6.46582 12.6811C6.13718 13.2334 5.69567 13.4881 5.11719 13.4881V13.7881ZM6.72363 12.8345L6.97962 12.9909C6.98181 12.9873 6.976 12.9982 6.95894 13.013C6.94072 13.0288 6.90481 13.0532 6.85157 13.062L6.80225 12.7661L6.75293 12.4702C6.59397 12.4967 6.50645 12.6145 6.46765 12.678L6.72363 12.8345ZM6.80225 12.7661V13.0661C6.6972 13.0661 6.63552 13.0077 6.6187 12.9893C6.6011 12.9701 6.59818 12.9589 6.60472 12.9731L6.87744 12.8481L7.15016 12.7231C7.13163 12.6827 7.10366 12.6304 7.06099 12.5839C7.0191 12.5382 6.93236 12.4661 6.80225 12.4661V12.7661ZM6.87744 12.8481L6.60472 12.9731C6.60951 12.9836 6.61504 13.0016 6.61504 13.0327H6.91504H7.21504C7.21504 12.9271 7.1955 12.8221 7.15016 12.7231L6.87744 12.8481ZM6.91504 13.0327H6.61504C6.61504 13.0074 6.62413 13.0149 6.59132 13.0651C6.56059 13.1121 6.5062 13.1764 6.4189 13.2586L6.62451 13.4771L6.83012 13.6955C6.93651 13.5954 7.02738 13.4945 7.0935 13.3934C7.15753 13.2955 7.21504 13.172 7.21504 13.0327H6.91504ZM6.62451 13.4771L6.4189 13.2586C6.2557 13.4122 6.05281 13.5401 5.80518 13.6396L5.91699 13.918L6.0288 14.1964C6.33717 14.0725 6.60596 13.9065 6.83012 13.6955L6.62451 13.4771ZM5.91699 13.918L5.80439 13.6399C5.57193 13.734 5.28924 13.7854 4.94971 13.7854V14.0854V14.3854C5.34845 14.3854 5.71062 14.3252 6.0296 14.196L5.91699 13.918ZM4.94971 14.0854V13.7854C4.61579 13.7854 4.30154 13.7316 4.00508 13.6253L3.90381 13.9077L3.80254 14.1901C4.16689 14.3208 4.5499 14.3854 4.94971 14.3854V14.0854ZM3.90381 13.9077L4.00743 13.6262C3.71055 13.5169 3.46557 13.3714 3.26722 13.1926L3.06641 13.4155L2.86559 13.6384C3.12753 13.8744 3.44082 14.057 3.80019 14.1893L3.90381 13.9077ZM3.06641 13.4155L3.26663 13.1921C2.84713 12.8162 2.6418 12.3563 2.6418 11.792H2.3418H2.0418C2.0418 12.5266 2.31953 13.149 2.86618 13.6389L3.06641 13.4155ZM2.3418 11.792H2.6418C2.6418 11.1322 2.8575 10.623 3.27698 10.2349L3.07324 10.0146L2.8695 9.79444C2.31372 10.3087 2.0418 10.9844 2.0418 11.792H2.3418ZM3.07324 10.0146L3.27753 10.2343C3.69919 9.84224 4.2625 9.63447 4.99756 9.63447V9.33447V9.03447C4.14212 9.03447 3.42255 9.28016 2.86895 9.79496L3.07324 10.0146ZM4.99756 9.33447V9.63447C5.54793 9.63447 5.98143 9.70802 6.30998 9.84143L6.42285 9.56348L6.53572 9.28552C6.11232 9.11359 5.59562 9.03447 4.99756 9.03447V9.33447ZM6.42285 9.56348L6.30261 9.83832C6.31576 9.84408 6.32634 9.84915 6.33467 9.85348C6.34307 9.85784 6.34837 9.86101 6.3512 9.86283C6.35415 9.86473 6.35318 9.86436 6.34968 9.86137C6.34635 9.85852 6.33823 9.85116 6.32862 9.83867L6.56641 9.65576L6.80419 9.47285C6.73154 9.3784 6.62111 9.32276 6.5431 9.28863L6.42285 9.56348ZM6.56641 9.65576L6.32229 9.83013C6.31986 9.82673 6.32476 9.83223 6.33089 9.85462C6.337 9.87693 6.34287 9.91072 6.34545 9.95892L6.64502 9.94287L6.94459 9.92682C6.93644 9.77465 6.90409 9.61238 6.81053 9.48139L6.56641 9.65576ZM6.64502 9.94287L6.34581 9.96463C6.35494 10.0902 6.36037 10.1733 6.36245 10.2169L6.66211 10.2026L6.96177 10.1884C6.95929 10.1363 6.95333 10.0462 6.94423 9.92111L6.64502 9.94287ZM6.66211 10.2026L6.3631 10.227C6.36761 10.2822 6.37089 10.3255 6.37303 10.3576C6.3741 10.3736 6.37483 10.3861 6.37528 10.3954C6.37578 10.4056 6.37578 10.4088 6.37578 10.4077H6.67578H6.97578C6.97578 10.3674 6.96978 10.2844 6.96111 10.1782L6.66211 10.2026ZM10.2616 9.59082L10.2367 9.88978L10.2492 9.89082H10.2616V9.59082ZM10.0976 9.57715L10.1225 9.27818L10.1101 9.27715H10.0976V9.57715ZM9.81389 9.80615L9.52885 9.71256L9.52833 9.71419L9.81389 9.80615ZM9.8173 12.8755L9.53223 12.969L9.5327 12.9704L9.8173 12.8755ZM10.0087 13.2515L9.76523 13.4268L9.76756 13.4299L10.0087 13.2515ZM10.3027 13.542L10.1283 13.7861L10.1295 13.7869L10.3027 13.542ZM11.769 13.6821L11.8701 13.9646L11.8732 13.9635L11.769 13.6821ZM12.2099 13.3779L11.9784 13.1871L11.9772 13.1886L12.2099 13.3779ZM12.5141 12.1748L12.8141 12.1748L12.8141 12.1736L12.5141 12.1748ZM12.5072 10.5034H12.2072L12.2072 10.5046L12.5072 10.5034ZM12.4594 9.84717L12.1724 9.93452L12.1729 9.93629L12.4594 9.84717ZM12.3432 9.63525L12.1431 9.85883L12.1493 9.86434L12.1558 9.86951L12.3432 9.63525ZM12.1723 9.57715V9.27715H12.1601L12.1479 9.27814L12.1723 9.57715ZM12.0048 9.59082V9.89082H12.017L12.0292 9.88983L12.0048 9.59082ZM12.6918 9.41992V9.71992H12.7063L12.7208 9.71852L12.6918 9.41992ZM13.2558 9.36523V9.06523H13.2413L13.2268 9.06663L13.2558 9.36523ZM13.3515 9.59082L13.3266 9.88978L13.339 9.89082H13.3515V9.59082ZM13.1874 9.57715L13.2123 9.27818L13.1999 9.27715H13.1874V9.57715ZM12.9106 9.80615L12.6231 9.72034L12.6227 9.72177L12.9106 9.80615ZM12.8525 10.5034L13.1525 10.5045V10.5034H12.8525ZM12.8456 12.3491L12.5456 12.348V12.3491H12.8456ZM12.3603 13.5967L12.1481 13.3845L12.3603 13.5967ZM9.66008 13.5967L9.45149 13.8123L9.45307 13.8138L9.66008 13.5967ZM9.08586 9.85059L8.80006 9.9418L8.80064 9.94359L9.08586 9.85059ZM8.96623 9.63525L8.77185 9.86394L8.77882 9.86951L8.96623 9.63525ZM8.7885 9.57715V9.27715H8.77627L8.76409 9.27814L8.7885 9.57715ZM8.62102 9.59082V9.89082H8.63324L8.64542 9.88983L8.62102 9.59082ZM9.82414 9.39258L9.78096 9.0957L9.78018 9.09582L9.82414 9.39258ZM10.2616 9.59082L10.2866 9.29186L10.1225 9.27818L10.0976 9.57715L10.0727 9.87611L10.2367 9.88978L10.2616 9.59082ZM10.0976 9.57715V9.27715C9.96989 9.27715 9.84217 9.31363 9.73397 9.40096C9.62932 9.48544 9.56627 9.59863 9.52886 9.71256L9.81389 9.80615L10.0989 9.89974C10.1116 9.86101 10.1209 9.85969 10.1108 9.86783C10.1086 9.86964 10.1059 9.87148 10.1029 9.87313C10.0998 9.87477 10.0971 9.8759 10.0949 9.87662C10.0903 9.87811 10.0904 9.87715 10.0976 9.87715V9.57715ZM9.81389 9.80615L9.52833 9.71419C9.46923 9.89772 9.44895 10.1723 9.44895 10.5034H9.74895H10.0489C10.0489 10.1737 10.072 9.98346 10.0994 9.89811L9.81389 9.80615ZM9.74895 10.5034H9.44895V12.1919H9.74895H10.0489V10.5034H9.74895ZM9.74895 12.1919H9.44895C9.44895 12.5122 9.47072 12.7813 9.53224 12.969L9.8173 12.8755L10.1024 12.782C10.0727 12.6916 10.0489 12.505 10.0489 12.1919H9.74895ZM9.8173 12.8755L9.5327 12.9704C9.58759 13.135 9.66506 13.2876 9.76525 13.4268L10.0087 13.2515L10.2522 13.0762C10.1883 12.9875 10.1382 12.8894 10.1019 12.7806L9.8173 12.8755ZM10.0087 13.2515L9.76756 13.4299C9.86993 13.5683 9.99023 13.6875 10.1283 13.7861L10.3027 13.542L10.477 13.2979C10.3918 13.237 10.3161 13.1625 10.2499 13.073L10.0087 13.2515ZM10.3027 13.542L10.1295 13.7869C10.4069 13.9831 10.7218 14.0813 11.0649 14.0813V13.7812V13.4812C10.8428 13.4812 10.6496 13.4199 10.4759 13.297L10.3027 13.542ZM11.0649 13.7812V14.0813C11.37 14.0813 11.642 14.0463 11.8701 13.9646L11.769 13.6821L11.6678 13.3997C11.5268 13.4502 11.3294 13.4812 11.0649 13.4812V13.7812ZM11.769 13.6821L11.8732 13.9635C12.1011 13.879 12.295 13.7487 12.4426 13.5673L12.2099 13.3779L11.9772 13.1886C11.906 13.276 11.806 13.3485 11.6648 13.4008L11.769 13.6821ZM12.2099 13.3779L12.4414 13.5687C12.7111 13.2414 12.8141 12.7537 12.8141 12.1748H12.5141H12.2141C12.2141 12.7079 12.1143 13.0222 11.9784 13.1871L12.2099 13.3779ZM12.5141 12.1748L12.8141 12.1736L12.8072 10.5022L12.5072 10.5034L12.2072 10.5046L12.2141 12.176L12.5141 12.1748ZM12.5072 10.5034H12.8072C12.8072 10.332 12.8032 10.1857 12.7945 10.0663C12.7862 9.9526 12.7725 9.84373 12.7459 9.75805L12.4594 9.84717L12.1729 9.93629C12.1782 9.95315 12.1884 10.0049 12.1961 10.11C12.2033 10.2094 12.2072 10.3399 12.2072 10.5034H12.5072ZM12.4594 9.84717L12.7464 9.75982C12.7101 9.64049 12.6495 9.49611 12.5306 9.40099L12.3432 9.63525L12.1558 9.86951C12.1383 9.85554 12.1363 9.84688 12.1434 9.85983C12.15 9.87191 12.1605 9.89532 12.1724 9.93452L12.4594 9.84717ZM12.3432 9.63525L12.5432 9.41168C12.4336 9.31362 12.3 9.27715 12.1723 9.27715V9.57715V9.87715C12.1803 9.87715 12.1789 9.87825 12.1714 9.87571C12.1631 9.87288 12.1526 9.86733 12.1431 9.85883L12.3432 9.63525ZM12.1723 9.57715L12.1479 9.27814L11.9804 9.29181L12.0048 9.59082L12.0292 9.88983L12.1967 9.87615L12.1723 9.57715ZM12.0048 9.59082V9.29082C11.9962 9.29082 12.0453 9.28781 12.1007 9.33241C12.1685 9.38701 12.1818 9.45924 12.1818 9.4917H11.8818H11.5818C11.5818 9.59024 11.6155 9.71203 11.7243 9.79967C11.8207 9.87732 11.9314 9.89082 12.0048 9.89082V9.59082ZM11.8818 9.4917H12.1818C12.1818 9.50792 12.1786 9.53666 12.1623 9.56957C12.1454 9.60376 12.1207 9.62931 12.0962 9.64577C12.0551 9.67342 12.0313 9.66523 12.0697 9.66523V9.36523V9.06523C11.9829 9.06523 11.8651 9.07813 11.7613 9.14793C11.6364 9.23195 11.5818 9.36331 11.5818 9.4917H11.8818ZM12.0697 9.36523V9.66523C12.1815 9.66523 12.2708 9.67344 12.3404 9.68703L12.3979 9.39258L12.4553 9.09813C12.3381 9.07526 12.2087 9.06523 12.0697 9.06523V9.36523ZM12.3979 9.39258L12.3404 9.68703C12.4542 9.70922 12.5715 9.71992 12.6918 9.71992V9.41992V9.11992C12.6071 9.11992 12.5284 9.1124 12.4553 9.09813L12.3979 9.39258ZM12.6918 9.41992L12.7208 9.71852L13.2847 9.66383L13.2558 9.36523L13.2268 9.06663L12.6629 9.12132L12.6918 9.41992ZM13.2558 9.36523V9.66523C13.2787 9.66523 13.2908 9.66696 13.2947 9.66772C13.2992 9.66858 13.2881 9.6672 13.2697 9.65657C13.2494 9.64486 13.222 9.62266 13.201 9.58622C13.18 9.5498 13.1745 9.51496 13.1745 9.4917H13.4745H13.7745C13.7745 9.34256 13.6993 9.21189 13.57 9.13713C13.4656 9.0768 13.3478 9.06523 13.2558 9.06523V9.36523ZM13.4745 9.4917H13.1745C13.1745 9.45924 13.1878 9.38701 13.2556 9.33241C13.3109 9.28781 13.3601 9.29082 13.3515 9.29082V9.59082V9.89082C13.4249 9.89082 13.5356 9.87732 13.632 9.79967C13.7408 9.71203 13.7745 9.59024 13.7745 9.4917H13.4745ZM13.3515 9.59082L13.3764 9.29186L13.2123 9.27818L13.1874 9.57715L13.1625 9.87611L13.3266 9.88978L13.3515 9.59082ZM13.1874 9.57715V9.27715C13.0599 9.27715 12.9311 9.3136 12.8227 9.40323C12.718 9.4899 12.6574 9.60554 12.6231 9.72034L12.9106 9.80615L13.198 9.89196C13.2035 9.87348 13.2085 9.86405 13.2105 9.86069C13.2123 9.85774 13.211 9.86072 13.2052 9.86557C13.2024 9.86789 13.1991 9.87015 13.1955 9.87214C13.1919 9.87412 13.1886 9.87548 13.186 9.87635C13.1806 9.87812 13.1802 9.87715 13.1874 9.87715V9.57715ZM12.9106 9.80615L12.6227 9.72177C12.5706 9.8996 12.5525 10.1711 12.5525 10.5034H12.8525H13.1525C13.1525 10.1703 13.1731 9.97703 13.1985 9.89053L12.9106 9.80615ZM12.8525 10.5034L12.5525 10.5023L12.5456 12.348L12.8456 12.3491L13.1456 12.3502L13.1525 10.5045L12.8525 10.5034ZM12.8456 12.3491H12.5456C12.5456 12.7873 12.409 13.1237 12.1481 13.3845L12.3603 13.5967L12.5724 13.8088C12.9587 13.4225 13.1456 12.9272 13.1456 12.3491H12.8456ZM12.3603 13.5967L12.1481 13.3845C11.8884 13.6443 11.5359 13.7854 11.058 13.7854V14.0854V14.3854C11.6648 14.3854 12.1804 14.2008 12.5724 13.8088L12.3603 13.5967ZM11.058 14.0854V13.7854C10.5248 13.7854 10.14 13.6397 9.86708 13.3795L9.66008 13.5967L9.45307 13.8138C9.86374 14.2053 10.411 14.3854 11.058 14.3854V14.0854ZM9.66008 13.5967L9.86866 13.3811C9.59165 13.1131 9.43713 12.7303 9.43713 12.1919H9.13713H8.83713C8.83713 12.8521 9.03124 13.4058 9.4515 13.8123L9.66008 13.5967ZM9.13713 12.1919H9.43713V10.5034H9.13713H8.83713V12.1919H9.13713ZM9.13713 10.5034H9.43713C9.43713 10.3339 9.43277 10.1884 9.42339 10.0689C9.41442 9.95475 9.3996 9.84504 9.37108 9.75758L9.08586 9.85059L8.80064 9.94359C8.8063 9.96095 8.81711 10.0124 8.82523 10.1159C8.83294 10.214 8.83713 10.3425 8.83713 10.5034H9.13713ZM9.08586 9.85059L9.37166 9.75937C9.33351 9.63985 9.27156 9.49533 9.15364 9.40099L8.96623 9.63525L8.77882 9.86951C8.76144 9.85561 8.75993 9.84748 8.76807 9.86212C8.77559 9.87566 8.78696 9.90075 8.80006 9.9418L9.08586 9.85059ZM8.96623 9.63525L9.16052 9.40667C9.04952 9.31231 8.91638 9.27715 8.7885 9.27715V9.57715V9.87715C8.79854 9.87715 8.79948 9.87849 8.7944 9.87682C8.79184 9.87599 8.78824 9.87454 8.78404 9.87221C8.77981 9.86987 8.77569 9.86703 8.77194 9.86384L8.96623 9.63525ZM8.7885 9.57715L8.76409 9.27814L8.59661 9.29181L8.62102 9.59082L8.64542 9.88983L8.8129 9.87615L8.7885 9.57715ZM8.62102 9.59082V9.29082C8.61242 9.29082 8.66155 9.28781 8.71693 9.33241C8.7847 9.38701 8.79797 9.45924 8.79797 9.4917H8.49797H8.19797C8.19797 9.59024 8.23174 9.71203 8.34053 9.79967C8.43692 9.87732 8.54758 9.89082 8.62102 9.89082V9.59082ZM8.49797 9.4917H8.79797C8.79797 9.50792 8.79483 9.53666 8.77853 9.56957C8.76158 9.60376 8.73688 9.62931 8.71242 9.64577C8.67132 9.67342 8.6475 9.66523 8.68596 9.66523V9.36523V9.06523C8.59909 9.06523 8.48127 9.07813 8.37751 9.14793C8.25262 9.23195 8.19797 9.36331 8.19797 9.4917H8.49797ZM8.68596 9.36523V9.66523C8.79924 9.66523 8.90844 9.67332 9.01374 9.68922L9.05852 9.39258L9.10329 9.09594C8.96706 9.07537 8.82788 9.06523 8.68596 9.06523V9.36523ZM9.05852 9.39258L9.01374 9.68922C9.15048 9.70986 9.29197 9.71992 9.43791 9.71992V9.41992V9.11992C9.31953 9.11992 9.20809 9.11176 9.10329 9.09594L9.05852 9.39258ZM9.43791 9.41992V9.71992C9.5859 9.71992 9.72939 9.70989 9.86811 9.68934L9.82414 9.39258L9.78018 9.09582C9.6728 9.11172 9.55881 9.11992 9.43791 9.11992V9.41992ZM9.82414 9.39258L9.86732 9.68945C9.97876 9.67324 10.0885 9.66523 10.1967 9.66523V9.36523V9.06523C10.0588 9.06523 9.92017 9.07545 9.78096 9.0957L9.82414 9.39258ZM10.1967 9.36523V9.66523C10.2352 9.66523 10.2113 9.67342 10.1702 9.64577C10.1458 9.62931 10.1211 9.60376 10.1041 9.56957C10.0878 9.53666 10.0847 9.50792 10.0847 9.4917H10.3847H10.6847C10.6847 9.36331 10.63 9.23195 10.5051 9.14793C10.4014 9.07813 10.2836 9.06523 10.1967 9.06523V9.36523ZM10.3847 9.4917H10.0847C10.0847 9.45924 10.098 9.38701 10.1657 9.33241C10.2211 9.28781 10.2702 9.29082 10.2616 9.29082V9.59082V9.89082C10.3351 9.89082 10.4457 9.87732 10.5421 9.79967C10.6509 9.71203 10.6847 9.59024 10.6847 9.4917H10.3847Z" fill="white" mask="url(#path-2-outside-1_848_47)"/>
</svg>
