<svg width="193" height="193" viewBox="0 0 193 193" fill="none" xmlns="http://www.w3.org/2000/svg">
<rect width="193" height="193" rx="24.125" fill="black"/>
<mask id="path-2-outside-1_848_47" maskUnits="userSpaceOnUse" x="28" y="19" width="137" height="151" fill="black">
<rect fill="white" x="28" y="19" width="137" height="151"/>
<path d="M34.1304 76.5786C32.4588 76.5786 31.623 76.1029 31.623 75.1514C31.623 74.4056 32.0859 74.0327 33.0117 74.0327L34.9019 74.2256C36.4448 74.2256 37.4863 73.3641 38.0264 71.6411C38.4635 70.1753 38.6821 67.5522 38.6821 63.772V36.5386C38.6821 32.7583 38.5021 30.2896 38.1421 29.1323C37.7821 27.9494 37.3449 27.1522 36.8306 26.7407C36.342 26.3035 35.6991 26.085 34.9019 26.085L33.0117 26.2393C32.0859 26.2393 31.623 25.8664 31.623 25.1206C31.623 24.1691 32.3302 23.6934 33.7446 23.6934C35.159 23.6934 36.3934 23.7962 37.4478 24.002C38.5021 24.2077 39.5436 24.3105 40.5723 24.3105C43.2982 24.3105 45.5612 24.182 47.3613 23.9248C50.0872 23.5391 53.2118 23.3462 56.7349 23.3462C60.2837 23.3462 63.8068 23.9762 67.3042 25.2363C70.8273 26.4964 73.849 28.2837 76.3691 30.5981C81.7438 35.5099 84.4312 41.9647 84.4312 49.9624C84.4312 57.5487 81.7952 63.862 76.5234 68.9023C71.0716 74.1484 63.9225 76.7715 55.0762 76.7715C52.9417 76.7715 50.8716 76.6815 48.8657 76.5015C45.1369 76.1672 42.4367 76 40.7651 76L34.1304 76.5786ZM44.7383 58.2173C44.7383 62.7948 44.854 67.0508 45.0854 70.9854C48.5057 72.7598 52.3503 73.647 56.6191 73.647C59.7308 73.647 62.9582 72.9141 66.3013 71.4482C71.5988 69.1338 75.0576 64.9935 76.6777 59.0273C77.2692 56.9186 77.5649 54.1927 77.5649 50.8496C77.5649 47.4808 76.9863 44.2277 75.8291 41.0903C74.6976 37.9272 73.1032 35.2656 71.0459 33.1055C66.8542 28.6566 61.2095 26.4321 54.1118 26.4321C49.0457 26.4321 46.1398 27.1007 45.394 28.438C45.0083 29.158 44.8026 29.981 44.7769 30.9067C44.7511 31.8068 44.7383 32.694 44.7383 33.5684V58.2173ZM107.195 49.8853C107.195 46.0021 107.915 42.4404 109.355 39.2002C110.821 35.9342 112.788 33.1312 115.257 30.791C117.751 28.4251 120.631 26.5993 123.897 25.3135C127.163 24.002 130.686 23.3462 134.467 23.3462C138.247 23.3462 141.757 24.0405 144.997 25.4292C148.238 26.7922 151.015 28.6823 153.329 31.0996C158.19 36.2171 160.62 42.7104 160.62 50.5796C160.62 58.0373 158.113 64.2734 153.098 69.2881C147.98 74.4056 141.474 76.9644 133.579 76.9644C125.864 76.9644 119.513 74.3799 114.524 69.2109C109.638 64.1191 107.195 57.6772 107.195 49.8853ZM113.791 47.6865C113.791 51.0296 114.331 54.3213 115.411 57.5615C116.517 60.776 118.073 63.5791 120.078 65.9707C124.373 71.1654 129.799 73.7627 136.357 73.7627C141.423 73.7627 145.576 71.8597 148.816 68.0537C152.159 64.1449 153.831 59.0016 153.831 52.624C153.831 45.0892 151.812 38.8402 147.775 33.877C143.763 28.9909 138.684 26.5479 132.538 26.5479C127.472 26.5479 123.113 28.4766 119.461 32.334C115.681 36.3457 113.791 41.4632 113.791 47.6865ZM81.7695 124.458C81.7695 125.461 81.4224 125.963 80.728 125.963C80.1108 125.963 79.5965 125.346 79.1851 124.111C78.7993 122.851 78.0535 121.668 76.9478 120.562C75.842 119.457 74.5176 118.531 72.9746 117.785C69.7601 116.216 66.3013 115.432 62.5981 115.432C58.9207 115.432 55.7319 115.934 53.0317 116.937C50.3573 117.914 48.0557 119.328 46.127 121.18C42.1152 125.114 40.1094 130.425 40.1094 137.111C40.1094 144.517 42.3724 150.625 46.8984 155.434C51.3988 160.217 57.1592 162.608 64.1797 162.608C71.9974 162.608 78.0407 159.021 82.3096 151.846C82.5924 151.383 82.8882 151.126 83.1968 151.075C83.4797 151.075 83.7625 151.383 84.0454 152C84.3283 152.618 84.4697 153.312 84.4697 154.083C84.4697 155.369 83.3768 157.041 81.1909 159.098C79.005 161.155 76.3434 162.814 73.2061 164.074C70.0944 165.334 66.4556 165.964 62.2896 165.964C58.1493 165.964 54.2147 165.296 50.4858 163.958C46.7827 162.596 43.6325 160.744 41.0352 158.404C35.5833 153.518 32.8574 147.41 32.8574 140.081C32.8574 131.8 35.609 125.114 41.1123 120.022C46.6156 114.905 53.8547 112.346 62.8296 112.346C69.3101 112.346 74.6719 113.208 78.915 114.931C79.738 115.291 80.278 115.638 80.5352 115.972C81.0495 116.692 81.3452 117.772 81.4224 119.212C81.5252 120.627 81.5895 121.604 81.6152 122.144C81.7181 123.404 81.7695 124.176 81.7695 124.458ZM122.239 115.239L120.387 115.085C118.818 115.085 117.751 115.946 117.185 117.669C116.697 119.187 116.452 121.81 116.452 125.539V144.594C116.452 148.169 116.71 150.74 117.224 152.309C117.738 153.852 118.458 155.266 119.384 156.552C120.336 157.838 121.441 158.931 122.701 159.831C125.247 161.631 128.115 162.531 131.303 162.531C134.518 162.531 137.167 162.158 139.25 161.413C141.333 160.641 142.991 159.497 144.226 157.979C146.515 155.202 147.659 150.676 147.659 144.401L147.582 125.539C147.582 121.758 147.402 119.29 147.042 118.132C146.682 116.949 146.245 116.152 145.73 115.741C145.242 115.304 144.599 115.085 143.802 115.085L141.911 115.239C140.986 115.239 140.523 114.866 140.523 114.121C140.523 113.169 141.23 112.693 142.644 112.693C144.059 112.693 145.293 112.796 146.347 113.002C147.402 113.208 148.508 113.311 149.665 113.311L156.03 112.693C157.675 112.693 158.498 113.169 158.498 114.121C158.498 114.866 158.035 115.239 157.11 115.239L155.258 115.085C153.689 115.085 152.648 115.946 152.134 117.669C151.696 119.161 151.478 121.784 151.478 125.539L151.401 146.369C151.401 152.103 149.575 156.797 145.923 160.448C142.246 164.126 137.347 165.964 131.226 165.964C124.566 165.964 119.307 164.126 115.449 160.448C111.515 156.642 109.548 151.358 109.548 144.594V125.539C109.548 121.81 109.355 119.354 108.969 118.171C108.583 116.962 108.133 116.152 107.619 115.741C107.105 115.304 106.436 115.085 105.613 115.085L103.723 115.239C102.797 115.239 102.334 114.866 102.334 114.121C102.334 113.169 103.041 112.693 104.456 112.693C105.896 112.693 107.297 112.796 108.66 113.002C110.023 113.208 111.451 113.311 112.942 113.311C114.459 113.311 115.912 113.208 117.301 113.002C118.715 112.796 120.117 112.693 121.506 112.693C122.92 112.693 123.627 113.169 123.627 114.121C123.627 114.866 123.164 115.239 122.239 115.239Z"/>
</mask>
<path d="M34.1304 76.5786C32.4588 76.5786 31.623 76.1029 31.623 75.1514C31.623 74.4056 32.0859 74.0327 33.0117 74.0327L34.9019 74.2256C36.4448 74.2256 37.4863 73.3641 38.0264 71.6411C38.4635 70.1753 38.6821 67.5522 38.6821 63.772V36.5386C38.6821 32.7583 38.5021 30.2896 38.1421 29.1323C37.7821 27.9494 37.3449 27.1522 36.8306 26.7407C36.342 26.3035 35.6991 26.085 34.9019 26.085L33.0117 26.2393C32.0859 26.2393 31.623 25.8664 31.623 25.1206C31.623 24.1691 32.3302 23.6934 33.7446 23.6934C35.159 23.6934 36.3934 23.7962 37.4478 24.002C38.5021 24.2077 39.5436 24.3105 40.5723 24.3105C43.2982 24.3105 45.5612 24.182 47.3613 23.9248C50.0872 23.5391 53.2118 23.3462 56.7349 23.3462C60.2837 23.3462 63.8068 23.9762 67.3042 25.2363C70.8273 26.4964 73.849 28.2837 76.3691 30.5981C81.7438 35.5099 84.4312 41.9647 84.4312 49.9624C84.4312 57.5487 81.7952 63.862 76.5234 68.9023C71.0716 74.1484 63.9225 76.7715 55.0762 76.7715C52.9417 76.7715 50.8716 76.6815 48.8657 76.5015C45.1369 76.1672 42.4367 76 40.7651 76L34.1304 76.5786ZM44.7383 58.2173C44.7383 62.7948 44.854 67.0508 45.0854 70.9854C48.5057 72.7598 52.3503 73.647 56.6191 73.647C59.7308 73.647 62.9582 72.9141 66.3013 71.4482C71.5988 69.1338 75.0576 64.9935 76.6777 59.0273C77.2692 56.9186 77.5649 54.1927 77.5649 50.8496C77.5649 47.4808 76.9863 44.2277 75.8291 41.0903C74.6976 37.9272 73.1032 35.2656 71.0459 33.1055C66.8542 28.6566 61.2095 26.4321 54.1118 26.4321C49.0457 26.4321 46.1398 27.1007 45.394 28.438C45.0083 29.158 44.8026 29.981 44.7769 30.9067C44.7511 31.8068 44.7383 32.694 44.7383 33.5684V58.2173ZM107.195 49.8853C107.195 46.0021 107.915 42.4404 109.355 39.2002C110.821 35.9342 112.788 33.1312 115.257 30.791C117.751 28.4251 120.631 26.5993 123.897 25.3135C127.163 24.002 130.686 23.3462 134.467 23.3462C138.247 23.3462 141.757 24.0405 144.997 25.4292C148.238 26.7922 151.015 28.6823 153.329 31.0996C158.19 36.2171 160.62 42.7104 160.62 50.5796C160.62 58.0373 158.113 64.2734 153.098 69.2881C147.98 74.4056 141.474 76.9644 133.579 76.9644C125.864 76.9644 119.513 74.3799 114.524 69.2109C109.638 64.1191 107.195 57.6772 107.195 49.8853ZM113.791 47.6865C113.791 51.0296 114.331 54.3213 115.411 57.5615C116.517 60.776 118.073 63.5791 120.078 65.9707C124.373 71.1654 129.799 73.7627 136.357 73.7627C141.423 73.7627 145.576 71.8597 148.816 68.0537C152.159 64.1449 153.831 59.0016 153.831 52.624C153.831 45.0892 151.812 38.8402 147.775 33.877C143.763 28.9909 138.684 26.5479 132.538 26.5479C127.472 26.5479 123.113 28.4766 119.461 32.334C115.681 36.3457 113.791 41.4632 113.791 47.6865ZM81.7695 124.458C81.7695 125.461 81.4224 125.963 80.728 125.963C80.1108 125.963 79.5965 125.346 79.1851 124.111C78.7993 122.851 78.0535 121.668 76.9478 120.562C75.842 119.457 74.5176 118.531 72.9746 117.785C69.7601 116.216 66.3013 115.432 62.5981 115.432C58.9207 115.432 55.7319 115.934 53.0317 116.937C50.3573 117.914 48.0557 119.328 46.127 121.18C42.1152 125.114 40.1094 130.425 40.1094 137.111C40.1094 144.517 42.3724 150.625 46.8984 155.434C51.3988 160.217 57.1592 162.608 64.1797 162.608C71.9974 162.608 78.0407 159.021 82.3096 151.846C82.5924 151.383 82.8882 151.126 83.1968 151.075C83.4797 151.075 83.7625 151.383 84.0454 152C84.3283 152.618 84.4697 153.312 84.4697 154.083C84.4697 155.369 83.3768 157.041 81.1909 159.098C79.005 161.155 76.3434 162.814 73.2061 164.074C70.0944 165.334 66.4556 165.964 62.2896 165.964C58.1493 165.964 54.2147 165.296 50.4858 163.958C46.7827 162.596 43.6325 160.744 41.0352 158.404C35.5833 153.518 32.8574 147.41 32.8574 140.081C32.8574 131.8 35.609 125.114 41.1123 120.022C46.6156 114.905 53.8547 112.346 62.8296 112.346C69.3101 112.346 74.6719 113.208 78.915 114.931C79.738 115.291 80.278 115.638 80.5352 115.972C81.0495 116.692 81.3452 117.772 81.4224 119.212C81.5252 120.627 81.5895 121.604 81.6152 122.144C81.7181 123.404 81.7695 124.176 81.7695 124.458ZM122.239 115.239L120.387 115.085C118.818 115.085 117.751 115.946 117.185 117.669C116.697 119.187 116.452 121.81 116.452 125.539V144.594C116.452 148.169 116.71 150.74 117.224 152.309C117.738 153.852 118.458 155.266 119.384 156.552C120.336 157.838 121.441 158.931 122.701 159.831C125.247 161.631 128.115 162.531 131.303 162.531C134.518 162.531 137.167 162.158 139.25 161.413C141.333 160.641 142.991 159.497 144.226 157.979C146.515 155.202 147.659 150.676 147.659 144.401L147.582 125.539C147.582 121.758 147.402 119.29 147.042 118.132C146.682 116.949 146.245 116.152 145.73 115.741C145.242 115.304 144.599 115.085 143.802 115.085L141.911 115.239C140.986 115.239 140.523 114.866 140.523 114.121C140.523 113.169 141.23 112.693 142.644 112.693C144.059 112.693 145.293 112.796 146.347 113.002C147.402 113.208 148.508 113.311 149.665 113.311L156.03 112.693C157.675 112.693 158.498 113.169 158.498 114.121C158.498 114.866 158.035 115.239 157.11 115.239L155.258 115.085C153.689 115.085 152.648 115.946 152.134 117.669C151.696 119.161 151.478 121.784 151.478 125.539L151.401 146.369C151.401 152.103 149.575 156.797 145.923 160.448C142.246 164.126 137.347 165.964 131.226 165.964C124.566 165.964 119.307 164.126 115.449 160.448C111.515 156.642 109.548 151.358 109.548 144.594V125.539C109.548 121.81 109.355 119.354 108.969 118.171C108.583 116.962 108.133 116.152 107.619 115.741C107.105 115.304 106.436 115.085 105.613 115.085L103.723 115.239C102.797 115.239 102.334 114.866 102.334 114.121C102.334 113.169 103.041 112.693 104.456 112.693C105.896 112.693 107.297 112.796 108.66 113.002C110.023 113.208 111.451 113.311 112.942 113.311C114.459 113.311 115.912 113.208 117.301 113.002C118.715 112.796 120.117 112.693 121.506 112.693C122.92 112.693 123.627 113.169 123.627 114.121C123.627 114.866 123.164 115.239 122.239 115.239Z" fill="white"/>
<path d="M34.1304 76.5786V79.9643H34.2777L34.4245 79.9515L34.1304 76.5786ZM33.0117 74.0327L33.3554 70.6645L33.184 70.647H33.0117V74.0327ZM34.9019 74.2256L34.5582 77.5938L34.7296 77.6113H34.9019V74.2256ZM38.0264 71.6411L41.2571 72.6537L41.2641 72.6313L41.2709 72.6088L38.0264 71.6411ZM38.1421 29.1323L34.9031 30.1181L34.9061 30.1281L34.9092 30.1381L38.1421 29.1323ZM36.8306 26.7407L34.573 29.2639L34.6426 29.3262L34.7155 29.3845L36.8306 26.7407ZM34.9019 26.085V22.6992H34.7639L34.6264 22.7105L34.9019 26.085ZM33.0117 26.2393V29.625H33.1497L33.2872 29.6137L33.0117 26.2393ZM37.4478 24.002L36.7994 27.325L37.4478 24.002ZM47.3613 23.9248L46.8869 20.5725L46.8825 20.5731L47.3613 23.9248ZM67.3042 25.2363L66.1566 28.4216L66.164 28.4243L67.3042 25.2363ZM76.3691 30.5981L74.079 33.0918L74.0851 33.0974L76.3691 30.5981ZM76.5234 68.9023L74.1837 66.4552L74.1758 66.4627L76.5234 68.9023ZM48.8657 76.5015L49.1684 73.1293L49.1681 73.1293L48.8657 76.5015ZM40.7651 76V72.6143H40.6178L40.471 72.6271L40.7651 76ZM45.0854 70.9854L41.7056 71.1842L41.8186 73.1047L43.5263 73.9907L45.0854 70.9854ZM66.3013 71.4482L64.9458 68.3457L64.9417 68.3475L66.3013 71.4482ZM76.6777 59.0273L73.4178 58.113L73.414 58.1265L73.4103 58.1401L76.6777 59.0273ZM75.8291 41.0903L72.6412 42.2307L72.6468 42.2464L72.6526 42.262L75.8291 41.0903ZM71.0459 33.1055L68.5817 35.4273L68.5879 35.4339L68.5942 35.4404L71.0459 33.1055ZM45.394 28.438L42.4371 26.7889L42.4231 26.8139L42.4096 26.8392L45.394 28.438ZM44.7769 30.9067L48.1612 31.0034L48.1613 31.0007L44.7769 30.9067ZM34.1304 76.5786V73.1929C33.8632 73.1929 33.7175 73.1731 33.6646 73.163C33.6053 73.1518 33.7229 73.1645 33.9248 73.2794C34.1473 73.406 34.4597 73.6522 34.7014 74.0649C34.9441 74.4794 35.0088 74.8798 35.0088 75.1514H31.623H28.2373C28.2373 76.8602 29.1135 78.3323 30.575 79.1642C31.7532 79.8349 33.0844 79.9643 34.1304 79.9643V76.5786ZM31.623 75.1514H35.0088C35.0088 75.5176 34.859 76.3329 34.0942 76.949C33.4692 77.4525 32.9147 77.4184 33.0117 77.4184V74.0327V70.647C32.183 70.647 30.9341 70.7994 29.8463 71.6757C28.6185 72.6648 28.2373 74.0393 28.2373 75.1514H31.623ZM33.0117 74.0327L32.668 77.4009L34.5582 77.5938L34.9019 74.2256L35.2456 70.8574L33.3554 70.6645L33.0117 74.0327ZM34.9019 74.2256V77.6113C36.3432 77.6113 37.7853 77.1916 38.9982 76.1883C40.1666 75.2219 40.8555 73.9349 41.2571 72.6537L38.0264 71.6411L34.7956 70.6285C34.7282 70.8435 34.6678 70.9581 34.6394 71.0046C34.6135 71.0469 34.6219 71.0205 34.6822 70.9706C34.7112 70.9466 34.7463 70.9222 34.7861 70.9002C34.8258 70.8782 34.863 70.8625 34.8944 70.8521C34.959 70.8305 34.9713 70.8399 34.9019 70.8399V74.2256ZM38.0264 71.6411L41.2709 72.6088C41.8651 70.6162 42.0678 67.5386 42.0678 63.772H38.6821H35.2964C35.2964 67.5659 35.0619 69.7344 34.7819 70.6735L38.0264 71.6411ZM38.6821 63.772H42.0678V36.5386H38.6821H35.2964V63.772H38.6821ZM38.6821 36.5386H42.0678C42.0678 34.6042 42.0221 32.9525 41.9239 31.6056C41.8303 30.3222 41.6758 29.0935 41.375 28.1265L38.1421 29.1323L34.9092 30.1381C34.9684 30.3284 35.0839 30.9127 35.1704 32.098C35.2522 33.2198 35.2964 34.6927 35.2964 36.5386H38.6821ZM38.1421 29.1323L41.3811 28.1465C40.9713 26.7999 40.2874 25.1703 38.9456 24.0969L36.8306 26.7407L34.7155 29.3845C34.5184 29.2268 34.4954 29.1291 34.5756 29.2752C34.6504 29.4116 34.7684 29.6757 34.9031 30.1181L38.1421 29.1323ZM36.8306 26.7407L39.0881 24.2175C37.8513 23.1109 36.3435 22.6992 34.9019 22.6992V26.085V29.4707C34.9927 29.4707 34.9766 29.4832 34.8921 29.4544C34.7981 29.4225 34.6802 29.3599 34.573 29.2639L36.8306 26.7407ZM34.9019 26.085L34.6264 22.7105L32.7363 22.8648L33.0117 26.2393L33.2872 29.6137L35.1773 29.4595L34.9019 26.085ZM33.0117 26.2393V22.8535C32.9147 22.8535 33.4692 22.8195 34.0942 23.323C34.859 23.9391 35.0088 24.7543 35.0088 25.1206H31.623H28.2373C28.2373 26.2327 28.6185 27.6072 29.8463 28.5962C30.9341 29.4726 32.183 29.625 33.0117 29.625V26.2393ZM31.623 25.1206H35.0088C35.0088 25.3036 34.9734 25.6281 34.7894 25.9994C34.5981 26.3853 34.3194 26.6736 34.0433 26.8594C33.5794 27.1714 33.3106 27.0791 33.7446 27.0791V23.6934V20.3076C32.7643 20.3076 31.4346 20.4532 30.2636 21.241C28.8541 22.1892 28.2373 23.6716 28.2373 25.1206H31.623ZM33.7446 23.6934V27.0791C35.0054 27.0791 36.0134 27.1716 36.7994 27.325L37.4478 24.002L38.0962 20.6789C36.7734 20.4208 35.3127 20.3076 33.7446 20.3076V23.6934ZM37.4478 24.002L36.7994 27.325C38.0579 27.5706 39.3166 27.6963 40.5723 27.6963V24.3105V20.9248C39.7707 20.9248 38.9463 20.8448 38.0962 20.6789L37.4478 24.002ZM40.5723 24.3105V27.6963C43.3877 27.6963 45.8242 27.5645 47.8401 27.2765L47.3613 23.9248L46.8825 20.5731C45.2982 20.7994 43.2086 20.9248 40.5723 20.9248V24.3105ZM47.3613 23.9248L47.8357 27.2771C50.3681 26.9188 53.329 26.7319 56.7349 26.7319V23.3462V19.9605C53.0945 19.9605 49.8063 20.1594 46.8869 20.5725L47.3613 23.9248ZM56.7349 23.3462V26.7319C59.8741 26.7319 63.0096 27.2878 66.1566 28.4216L67.3042 25.2363L68.4518 22.0511C64.604 20.6647 60.6933 19.9605 56.7349 19.9605V23.3462ZM67.3042 25.2363L66.164 28.4243C69.3014 29.5464 71.9219 31.1108 74.079 33.0918L76.3691 30.5981L78.6593 28.1045C75.776 25.4566 72.3533 23.4464 68.4444 22.0484L67.3042 25.2363ZM76.3691 30.5981L74.0851 33.0974C78.6844 37.3006 81.0454 42.8111 81.0454 49.9624H84.4312H87.8169C87.8169 41.1182 84.8032 33.7193 78.6532 28.0989L76.3691 30.5981ZM84.4312 49.9624H81.0454C81.0454 56.666 78.7579 62.0818 74.1837 66.4552L76.5234 68.9023L78.8632 71.3495C84.8326 65.6422 87.8169 58.4313 87.8169 49.9624H84.4312ZM76.5234 68.9023L74.1758 66.4627C69.4607 70.9999 63.206 73.3858 55.0762 73.3858V76.7715V80.1572C64.639 80.1572 72.6825 77.297 78.871 71.342L76.5234 68.9023ZM55.0762 76.7715V73.3858C53.0368 73.3858 51.0678 73.2998 49.1684 73.1293L48.8657 76.5015L48.5631 79.8736C50.6753 80.0632 52.8467 80.1572 55.0762 80.1572V76.7715ZM48.8657 76.5015L49.1681 73.1293C45.4305 72.7942 42.6002 72.6143 40.7651 72.6143V76V79.3857C42.2732 79.3857 44.8433 79.5401 48.5634 79.8737L48.8657 76.5015ZM40.7651 76L40.471 72.6271L33.8362 73.2057L34.1304 76.5786L34.4245 79.9515L41.0593 79.3729L40.7651 76ZM44.7383 58.2173H41.3526C41.3526 62.8508 41.4697 67.1739 41.7056 71.1842L45.0854 70.9854L48.4653 70.7865C48.2383 66.9277 48.124 62.7387 48.124 58.2173H44.7383ZM45.0854 70.9854L43.5263 73.9907C47.4784 76.0411 51.8671 77.0327 56.6191 77.0327V73.647V70.2613C52.8334 70.2613 49.5329 69.4785 46.6446 67.98L45.0854 70.9854ZM56.6191 73.647V77.0327C60.2727 77.0327 63.9624 76.1706 67.6608 74.549L66.3013 71.4482L64.9417 68.3475C61.9539 69.6575 59.1888 70.2613 56.6191 70.2613V73.647ZM66.3013 71.4482L67.6567 74.5508C73.9667 71.794 78.0776 66.7918 79.9451 59.9146L76.6777 59.0273L73.4103 58.1401C72.0376 63.1952 69.2309 66.4736 64.9458 68.3457L66.3013 71.4482ZM76.6777 59.0273L79.9376 59.9417C80.6442 57.4227 80.9507 54.3576 80.9507 50.8496H77.5649H74.1792C74.1792 54.0278 73.8942 56.4145 73.4178 58.113L76.6777 59.0273ZM77.5649 50.8496H80.9507C80.9507 47.084 80.3023 43.434 79.0056 39.9187L75.8291 41.0903L72.6526 42.262C73.6704 45.0214 74.1792 47.8776 74.1792 50.8496H77.5649ZM75.8291 41.0903L79.017 39.95C77.7463 36.3978 75.9198 33.3138 73.4976 30.7705L71.0459 33.1055L68.5942 35.4404C70.2865 37.2174 71.6489 39.4566 72.6412 42.2307L75.8291 41.0903ZM71.0459 33.1055L73.5101 30.7837C68.5742 25.5449 61.9783 23.0464 54.1118 23.0464V26.4321V29.8178C60.4407 29.8178 65.1342 31.7682 68.5817 35.4273L71.0459 33.1055ZM54.1118 26.4321V23.0464C51.4741 23.0464 49.1889 23.2164 47.3736 23.6341C45.7768 24.0015 43.5619 24.772 42.4371 26.7889L45.394 28.438L48.351 30.0871C47.9719 30.7668 47.5829 30.5343 48.892 30.2331C49.9826 29.9821 51.6834 29.8178 54.1118 29.8178V26.4321ZM45.394 28.438L42.4096 26.8392C41.744 28.0816 41.4308 29.4319 41.3924 30.8127L44.7769 30.9067L48.1613 31.0007C48.1743 30.53 48.2726 30.2345 48.3785 30.0368L45.394 28.438ZM44.7769 30.9067L41.3925 30.81C41.3659 31.7414 41.3526 32.6608 41.3526 33.5684H44.7383H48.124C48.124 32.7272 48.1364 31.8722 48.1612 31.0034L44.7769 30.9067ZM44.7383 33.5684H41.3526V58.2173H44.7383H48.124V33.5684H44.7383ZM109.355 39.2002L106.266 37.8138L106.261 37.8251L109.355 39.2002ZM115.257 30.791L117.586 33.2482L117.586 33.2476L115.257 30.791ZM123.897 25.3135L125.138 28.4638L125.148 28.4596L125.159 28.4553L123.897 25.3135ZM144.997 25.4292L143.664 28.5412L143.674 28.5456L143.685 28.5501L144.997 25.4292ZM153.329 31.0996L155.784 28.768L155.775 28.7581L153.329 31.0996ZM114.524 69.2109L112.081 71.5551L112.088 71.5622L114.524 69.2109ZM115.411 57.5615L112.199 58.6322L112.204 58.6475L112.209 58.6629L115.411 57.5615ZM120.078 65.9707L122.688 63.8134L122.68 63.8042L122.672 63.795L120.078 65.9707ZM148.816 68.0537L146.243 65.8531L146.238 65.8589L148.816 68.0537ZM147.775 33.877L150.401 31.7404L150.396 31.7344L150.391 31.7285L147.775 33.877ZM119.461 32.334L117.002 30.0064L116.997 30.0121L119.461 32.334ZM107.195 49.8853H110.58C110.58 46.4304 111.219 43.3429 112.449 40.5753L109.355 39.2002L106.261 37.8251C104.611 41.538 103.809 45.5739 103.809 49.8853H107.195ZM109.355 39.2002L112.444 40.5865C113.738 37.7022 115.454 35.2687 117.586 33.2482L115.257 30.791L112.927 28.3338C110.121 30.9937 107.903 34.1662 106.266 37.8139L109.355 39.2002ZM115.257 30.791L117.586 33.2476C119.759 31.1871 122.267 29.5938 125.138 28.4638L123.897 25.3135L122.657 22.1631C118.995 23.6047 115.743 25.6632 112.927 28.3345L115.257 30.791ZM123.897 25.3135L125.159 28.4553C127.995 27.3165 131.086 26.7319 134.467 26.7319V23.3462V19.9605C130.286 19.9605 126.332 20.6874 122.636 22.1716L123.897 25.3135ZM134.467 23.3462V26.7319C137.822 26.7319 140.875 27.3459 143.664 28.5412L144.997 25.4292L146.331 22.3172C142.64 20.7352 138.672 19.9605 134.467 19.9605V23.3462ZM144.997 25.4292L143.685 28.5501C146.52 29.7427 148.906 31.3751 150.884 33.4411L153.329 31.0996L155.775 28.7581C153.124 25.9895 149.955 23.8417 146.31 22.3083L144.997 25.4292ZM153.329 31.0996L150.874 33.4312C155.067 37.8451 157.234 43.4699 157.234 50.5796H160.62H164.006C164.006 41.951 161.313 34.5891 155.784 28.768L153.329 31.0996ZM160.62 50.5796H157.234C157.234 57.1909 155.048 62.5499 150.704 66.894L153.098 69.2881L155.492 71.6821C161.177 65.997 164.006 58.8837 164.006 50.5796H160.62ZM153.098 69.2881L150.704 66.894C146.282 71.3158 140.666 73.5786 133.579 73.5786V76.9644V80.3501C142.282 80.3501 149.679 77.4954 155.492 71.6821L153.098 69.2881ZM133.579 76.9644V73.5786C126.708 73.5786 121.26 71.3151 116.96 66.8597L114.524 69.2109L112.088 71.5622C117.765 77.4447 125.021 80.3501 133.579 80.3501V76.9644ZM114.524 69.2109L116.967 66.8667C112.751 62.4736 110.58 56.9027 110.58 49.8853H107.195H103.809C103.809 58.4518 106.524 65.7647 112.081 71.5551L114.524 69.2109ZM113.791 47.6865H110.405C110.405 51.4014 111.006 55.0543 112.199 58.6322L115.411 57.5615L118.623 56.4909C117.655 53.5883 117.176 50.6578 117.176 47.6865H113.791ZM115.411 57.5615L112.209 58.6629C113.438 62.2347 115.189 65.4097 117.484 68.1464L120.078 65.9707L122.672 63.795C120.956 61.7485 119.595 59.3174 118.612 56.4602L115.411 57.5615ZM120.078 65.9707L117.469 68.128C122.386 74.0757 128.758 77.1484 136.357 77.1484V73.7627V70.377C130.841 70.377 126.36 68.2551 122.688 63.8134L120.078 65.9707ZM136.357 73.7627V77.1484C142.4 77.1484 147.501 74.8218 151.394 70.2485L148.816 68.0537L146.238 65.8589C143.651 68.8976 140.446 70.377 136.357 70.377V73.7627ZM148.816 68.0537L151.389 70.2543C155.374 65.5954 157.217 59.6082 157.217 52.624H153.831H150.445C150.445 58.3951 148.945 62.6943 146.243 65.8531L148.816 68.0537ZM153.831 52.624H157.217C157.217 44.4554 155.014 37.4107 150.401 31.7404L147.775 33.877L145.148 36.0135C148.61 40.2696 150.445 45.723 150.445 52.624H153.831ZM147.775 33.877L150.391 31.7285C145.758 26.0851 139.731 23.1621 132.538 23.1621V26.5479V29.9336C137.637 29.9336 141.768 31.8967 145.158 36.0254L147.775 33.877ZM132.538 26.5479V23.1621C126.492 23.1621 121.259 25.5103 117.002 30.0064L119.461 32.334L121.92 34.6616C124.967 31.4428 128.451 29.9336 132.538 29.9336V26.5479ZM119.461 32.334L116.997 30.0121C112.547 34.7344 110.405 40.7204 110.405 47.6865H113.791H117.176C117.176 42.2061 118.815 37.957 121.925 34.6559L119.461 32.334ZM79.1851 124.111L75.9476 125.102L75.9599 125.142L75.9731 125.182L79.1851 124.111ZM72.9746 117.785L71.4897 120.828L71.5013 120.833L72.9746 117.785ZM53.0317 116.937L54.1937 120.117L54.2022 120.114L54.2106 120.11L53.0317 116.937ZM46.127 121.18L43.7822 118.737L43.7692 118.75L43.7562 118.762L46.127 121.18ZM46.8984 155.434L49.3643 153.114L49.3639 153.113L46.8984 155.434ZM82.3096 151.846L79.4206 150.081L79.4102 150.098L79.3999 150.115L82.3096 151.846ZM83.1968 151.075V147.689H82.9166L82.6402 147.735L83.1968 151.075ZM73.2061 164.074L71.9442 160.932L71.9352 160.936L73.2061 164.074ZM50.4858 163.958L49.3164 167.136L49.3296 167.141L49.3429 167.145L50.4858 163.958ZM41.0352 158.404L43.3015 155.888L43.2948 155.883L41.0352 158.404ZM41.1123 120.022L43.4117 122.508L43.4179 122.502L41.1123 120.022ZM78.915 114.931L80.2721 111.829L80.2307 111.811L80.1888 111.794L78.915 114.931ZM80.5352 115.972L83.2902 114.004L83.2553 113.955L83.2188 113.908L80.5352 115.972ZM81.4224 119.212L78.0415 119.394L78.0432 119.426L78.0456 119.458L81.4224 119.212ZM81.6152 122.144L78.2334 122.305L78.2361 122.362L78.2407 122.42L81.6152 122.144ZM81.7695 124.458H78.3838C78.3838 124.674 78.3276 124.234 78.7254 123.66C78.9532 123.331 79.2874 123.024 79.7149 122.818C80.126 122.62 80.4941 122.577 80.728 122.577V125.963V129.349C82.0079 129.349 83.3917 128.816 84.2929 127.514C85.0379 126.438 85.1552 125.246 85.1552 124.458H81.7695ZM80.728 125.963V122.577C81.1656 122.577 81.5726 122.693 81.9057 122.875C82.2184 123.045 82.4009 123.237 82.4804 123.333C82.6091 123.487 82.5417 123.475 82.397 123.041L79.1851 124.111L75.9731 125.182C76.2399 125.982 76.6354 126.896 77.2784 127.667C77.9705 128.498 79.1292 129.349 80.728 129.349V125.963ZM79.1851 124.111L82.4225 123.12C81.8469 121.24 80.7663 119.593 79.3418 118.168L76.9478 120.562L74.5537 122.957C75.3408 123.744 75.7517 124.462 75.9476 125.102L79.1851 124.111ZM76.9478 120.562L79.3418 118.168C77.9434 116.77 76.2997 115.632 74.448 114.737L72.9746 117.785L71.5013 120.833C72.7355 121.43 73.7405 122.143 74.5537 122.957L76.9478 120.562ZM72.9746 117.785L74.4595 114.742C70.766 112.94 66.7971 112.046 62.5981 112.046V115.432V118.818C65.8054 118.818 68.7542 119.493 71.4898 120.828L72.9746 117.785ZM62.5981 115.432V112.046C58.6246 112.046 55.0185 112.587 51.8529 113.763L53.0317 116.937L54.2106 120.11C56.4454 119.28 59.2169 118.818 62.5981 118.818V115.432ZM53.0317 116.937L51.8698 113.756C48.7833 114.884 46.0715 116.54 43.7822 118.737L46.127 121.18L48.4717 123.622C50.0399 122.117 51.9312 120.943 54.1937 120.117L53.0317 116.937ZM46.127 121.18L43.7562 118.762C38.9736 123.453 36.7237 129.701 36.7237 137.111H40.1094H43.4951C43.4951 131.148 45.2568 126.775 48.4977 123.597L46.127 121.18ZM40.1094 137.111H36.7237C36.7237 145.266 39.2424 152.239 44.433 157.754L46.8984 155.434L49.3639 153.113C45.5024 149.01 43.4951 143.768 43.4951 137.111H40.1094ZM46.8984 155.434L44.4326 157.754C49.6205 163.268 56.2975 165.994 64.1797 165.994V162.608V159.223C58.0209 159.223 53.1771 157.166 49.3643 153.114L46.8984 155.434ZM64.1797 162.608V165.994C73.2865 165.994 80.3904 161.693 85.2192 153.577L82.3096 151.846L79.3999 150.115C75.691 156.349 70.7083 159.223 64.1797 159.223V162.608ZM82.3096 151.846L85.1985 153.612C85.2233 153.571 85.1577 153.694 84.9652 153.861C84.7595 154.04 84.3542 154.314 83.7534 154.414L83.1968 151.075L82.6402 147.735C80.8463 148.034 79.8585 149.364 79.4206 150.081L82.3096 151.846ZM83.1968 151.075V154.46C82.0113 154.46 81.3152 153.801 81.1253 153.594C80.9267 153.377 80.8938 153.25 80.9676 153.411L84.0454 152L87.1232 150.59C86.9141 150.134 86.5984 149.544 86.1169 149.018C85.6441 148.503 84.6652 147.689 83.1968 147.689V151.075ZM84.0454 152L80.9676 153.411C81.0216 153.529 81.084 153.733 81.084 154.083H84.4697H87.8554C87.8554 152.892 87.6349 151.706 87.1232 150.59L84.0454 152ZM84.4697 154.083H81.084C81.084 153.798 81.1866 153.882 80.8163 154.449C80.4696 154.979 79.8557 155.705 78.8705 156.633L81.1909 159.098L83.5114 161.564C84.712 160.434 85.7375 159.296 86.4838 158.154C87.2064 157.049 87.8554 155.655 87.8554 154.083H84.4697ZM81.1909 159.098L78.8705 156.633C77.0286 158.366 74.7388 159.81 71.9442 160.932L73.2061 164.074L74.4679 167.216C77.948 165.818 80.9815 163.945 83.5114 161.564L81.1909 159.098ZM73.2061 164.074L71.9352 160.936C69.3118 161.998 66.1215 162.579 62.2896 162.579V165.964V169.35C66.7897 169.35 70.877 168.67 74.4769 167.212L73.2061 164.074ZM62.2896 165.964V162.579C58.521 162.579 54.9745 161.971 51.6288 160.772L50.4858 163.958L49.3429 167.145C53.4548 168.62 57.7775 169.35 62.2896 169.35V165.964ZM50.4858 163.958L51.6553 160.781C48.3048 159.548 45.54 157.905 43.3015 155.888L41.0352 158.404L38.7689 160.919C41.7249 163.583 45.2606 165.643 49.3164 167.136L50.4858 163.958ZM41.0352 158.404L43.2948 155.883C38.5605 151.639 36.2431 146.449 36.2431 140.081H32.8574H29.4717C29.4717 148.371 32.6062 155.396 38.7755 160.925L41.0352 158.404ZM32.8574 140.081H36.2431C36.2431 132.635 38.6775 126.888 43.4117 122.508L41.1123 120.022L38.8129 117.537C32.5406 123.341 29.4717 130.966 29.4717 140.081H32.8574ZM41.1123 120.022L43.4179 122.502C48.1766 118.077 54.5339 115.732 62.8296 115.732V112.346V108.96C53.1754 108.96 45.0545 111.733 38.8067 117.543L41.1123 120.022ZM62.8296 112.346V115.732C69.0409 115.732 73.9333 116.562 77.6412 118.068L78.915 114.931L80.1888 111.794C75.4104 109.853 69.5792 108.96 62.8296 108.96V112.346ZM78.915 114.931L77.558 118.033C77.7064 118.097 77.8258 118.155 77.9199 118.204C78.0147 118.253 78.0745 118.289 78.1064 118.309C78.1397 118.33 78.1287 118.326 78.0893 118.293C78.0516 118.26 77.96 118.177 77.8516 118.036L80.5352 115.972L83.2188 113.908C82.3988 112.842 81.1525 112.214 80.2721 111.829L78.915 114.931ZM80.5352 115.972L77.7801 117.94C77.7527 117.902 77.808 117.964 77.8772 118.216C77.9461 118.468 78.0124 118.85 78.0415 119.394L81.4224 119.212L84.8032 119.031C84.7112 117.314 84.3462 115.483 83.2902 114.004L80.5352 115.972ZM81.4224 119.212L78.0456 119.458C78.1486 120.875 78.2099 121.813 78.2334 122.305L81.6152 122.144L84.9971 121.983C84.9691 121.395 84.9018 120.378 84.7992 118.967L81.4224 119.212ZM81.6152 122.144L78.2407 122.42C78.2915 123.042 78.3286 123.531 78.3527 123.893C78.3648 124.074 78.3731 124.215 78.3782 124.32C78.3838 124.435 78.3838 124.471 78.3838 124.458H81.7695H85.1552C85.1552 124.004 85.0876 123.067 84.9897 121.869L81.6152 122.144ZM122.239 115.239L121.957 118.613L122.098 118.625H122.239V115.239ZM120.387 115.085L120.668 111.711L120.528 111.699H120.387V115.085ZM117.185 117.669L113.969 116.613L113.966 116.622L113.963 116.632L117.185 117.669ZM117.224 152.309L114.007 153.364L114.009 153.372L114.012 153.38L117.224 152.309ZM119.384 156.552L116.636 158.531L116.649 158.548L116.662 158.566L119.384 156.552ZM122.701 159.831L120.734 162.586L120.74 162.591L120.747 162.596L122.701 159.831ZM139.25 161.413L140.391 164.6L140.408 164.594L140.426 164.588L139.25 161.413ZM144.226 157.979L141.613 155.826L141.606 155.835L141.599 155.843L144.226 157.979ZM147.659 144.401H151.045L151.045 144.388L147.659 144.401ZM147.582 125.539H144.196L144.196 125.552L147.582 125.539ZM147.042 118.132L143.803 119.118L143.806 119.128L143.809 119.138L147.042 118.132ZM145.73 115.741L143.473 118.264L143.542 118.326L143.615 118.385L145.73 115.741ZM143.802 115.085V111.699H143.664L143.526 111.71L143.802 115.085ZM141.911 115.239V118.625H142.049L142.187 118.614L141.911 115.239ZM149.665 113.311V116.696H149.829L149.992 116.68L149.665 113.311ZM156.03 112.693V109.308H155.866L155.703 109.323L156.03 112.693ZM157.11 115.239L156.828 118.613L156.969 118.625H157.11V115.239ZM155.258 115.085L155.539 111.711L155.399 111.699H155.258V115.085ZM152.134 117.669L148.889 116.701L148.887 116.709L148.885 116.717L152.134 117.669ZM151.478 125.539L154.863 125.551V125.539H151.478ZM151.401 146.369L148.015 146.356V146.369H151.401ZM145.923 160.448L143.529 158.054L145.923 160.448ZM115.449 160.448L113.095 162.882L113.104 162.89L113.113 162.899L115.449 160.448ZM108.969 118.171L105.744 119.2L105.747 119.21L105.75 119.221L108.969 118.171ZM107.619 115.741L105.426 118.32L105.465 118.353L105.504 118.385L107.619 115.741ZM105.613 115.085V111.699H105.475L105.338 111.71L105.613 115.085ZM103.723 115.239V118.625H103.861L103.998 118.614L103.723 115.239ZM108.66 113.002L108.155 116.35L108.66 113.002ZM117.301 113.002L116.814 109.651L116.805 109.653L117.301 113.002ZM122.239 115.239L122.52 111.865L120.668 111.711L120.387 115.085L120.106 118.459L121.957 118.613L122.239 115.239ZM120.387 115.085V111.699C118.946 111.699 117.504 112.111 116.283 113.097C115.102 114.05 114.391 115.327 113.969 116.613L117.185 117.669L120.402 118.726C120.546 118.289 120.651 118.274 120.537 118.366C120.511 118.386 120.481 118.407 120.447 118.425C120.412 118.444 120.381 118.457 120.356 118.465C120.305 118.481 120.306 118.471 120.387 118.471V115.085ZM117.185 117.669L113.963 116.632C113.296 118.703 113.067 121.802 113.067 125.539H116.452H119.838C119.838 121.817 120.098 119.671 120.408 118.707L117.185 117.669ZM116.452 125.539H113.067V144.594H116.452H119.838V125.539H116.452ZM116.452 144.594H113.067C113.067 148.209 113.312 151.247 114.007 153.364L117.224 152.309L120.441 151.254C120.107 150.234 119.838 148.128 119.838 144.594H116.452ZM117.224 152.309L114.012 153.38C114.631 155.238 115.506 156.96 116.636 158.531L119.384 156.552L122.132 154.574C121.411 153.573 120.845 152.466 120.436 151.238L117.224 152.309ZM119.384 156.552L116.662 158.566C117.818 160.127 119.175 161.473 120.734 162.586L122.701 159.831L124.669 157.076C123.707 156.389 122.853 155.549 122.106 154.538L119.384 156.552ZM122.701 159.831L120.747 162.596C123.878 164.81 127.432 165.917 131.303 165.917V162.531V159.146C128.798 159.146 126.617 158.453 124.656 157.067L122.701 159.831ZM131.303 162.531V165.917C134.747 165.917 137.816 165.522 140.391 164.6L139.25 161.413L138.109 158.225C136.517 158.795 134.289 159.146 131.303 159.146V162.531ZM139.25 161.413L140.426 164.588C142.998 163.635 145.186 162.164 146.852 160.116L144.226 157.979L141.599 155.843C140.797 156.83 139.668 157.647 138.074 158.238L139.25 161.413ZM144.226 157.979L146.839 160.133C149.882 156.439 151.045 150.935 151.045 144.401H147.659H144.273C144.273 150.418 143.147 153.965 141.613 155.826L144.226 157.979ZM147.659 144.401L151.045 144.388L150.967 125.525L147.582 125.539L144.196 125.552L144.273 144.415L147.659 144.401ZM147.582 125.539H150.967C150.967 123.604 150.922 121.953 150.824 120.606C150.73 119.322 150.575 118.093 150.275 117.127L147.042 118.132L143.809 119.138C143.868 119.328 143.984 119.913 144.07 121.098C144.152 122.22 144.196 123.693 144.196 125.539H147.582ZM147.042 118.132L150.281 117.147C149.871 115.8 149.187 114.17 147.845 113.097L145.73 115.741L143.615 118.385C143.418 118.227 143.395 118.129 143.475 118.275C143.55 118.412 143.668 118.676 143.803 119.118L147.042 118.132ZM145.73 115.741L147.988 113.218C146.751 112.111 145.243 111.699 143.802 111.699V115.085V118.471C143.892 118.471 143.876 118.483 143.792 118.454C143.698 118.422 143.58 118.36 143.473 118.264L145.73 115.741ZM143.802 115.085L143.526 111.71L141.636 111.865L141.911 115.239L142.187 118.614L144.077 118.459L143.802 115.085ZM141.911 115.239V111.854C141.814 111.854 142.369 111.82 142.994 112.323C143.759 112.939 143.908 113.754 143.908 114.121H140.523H137.137C137.137 115.233 137.518 116.607 138.746 117.596C139.834 118.473 141.083 118.625 141.911 118.625V115.239ZM140.523 114.121H143.908C143.908 114.304 143.873 114.628 143.689 114.999C143.498 115.385 143.219 115.674 142.943 115.859C142.479 116.171 142.21 116.079 142.644 116.079V112.693V109.308C141.664 109.308 140.334 109.453 139.163 110.241C137.754 111.189 137.137 112.672 137.137 114.121H140.523ZM142.644 112.693V116.079C143.905 116.079 144.913 116.172 145.699 116.325L146.347 113.002L146.996 109.679C145.673 109.421 144.212 109.308 142.644 109.308V112.693ZM146.347 113.002L145.699 116.325C146.983 116.575 148.307 116.696 149.665 116.696V113.311V109.925C148.709 109.925 147.821 109.84 146.996 109.679L146.347 113.002ZM149.665 113.311L149.992 116.68L156.356 116.063L156.03 112.693L155.703 109.323L149.338 109.941L149.665 113.311ZM156.03 112.693V116.079C156.288 116.079 156.425 116.099 156.469 116.107C156.519 116.117 156.394 116.101 156.187 115.981C155.958 115.849 155.648 115.599 155.411 115.187C155.174 114.776 155.113 114.383 155.113 114.121H158.498H161.884C161.884 112.437 161.035 110.963 159.576 110.119C158.398 109.438 157.068 109.308 156.03 109.308V112.693ZM158.498 114.121H155.113C155.113 113.754 155.262 112.939 156.027 112.323C156.652 111.82 157.207 111.854 157.11 111.854V115.239V118.625C157.938 118.625 159.187 118.473 160.275 117.596C161.503 116.607 161.884 115.233 161.884 114.121H158.498ZM157.11 115.239L157.391 111.865L155.539 111.711L155.258 115.085L154.977 118.459L156.828 118.613L157.11 115.239ZM155.258 115.085V111.699C153.819 111.699 152.365 112.111 151.142 113.122C149.96 114.1 149.276 115.405 148.889 116.701L152.134 117.669L155.378 118.638C155.44 118.429 155.496 118.323 155.519 118.285C155.539 118.252 155.525 118.285 155.458 118.34C155.427 118.366 155.39 118.392 155.349 118.414C155.308 118.437 155.271 118.452 155.242 118.462C155.181 118.482 155.176 118.471 155.258 118.471V115.085ZM152.134 117.669L148.885 116.717C148.296 118.724 148.092 121.789 148.092 125.539H151.478H154.863C154.863 121.779 155.096 119.598 155.383 118.622L152.134 117.669ZM151.478 125.539L148.092 125.526L148.015 146.356L151.401 146.369L154.786 146.381L154.863 125.551L151.478 125.539ZM151.401 146.369H148.015C148.015 151.314 146.473 155.11 143.529 158.054L145.923 160.448L148.317 162.842C152.677 158.483 154.786 152.893 154.786 146.369H151.401ZM145.923 160.448L143.529 158.054C140.598 160.985 136.62 162.579 131.226 162.579V165.964V169.35C138.074 169.35 143.893 167.266 148.317 162.842L145.923 160.448ZM131.226 165.964V162.579C125.208 162.579 120.866 160.934 117.786 157.998L115.449 160.448L113.113 162.899C117.748 167.317 123.924 169.35 131.226 169.35V165.964ZM115.449 160.448L117.803 158.015C114.677 154.991 112.933 150.67 112.933 144.594H109.548H106.162C106.162 152.045 108.353 158.294 113.095 162.882L115.449 160.448ZM109.548 144.594H112.933V125.539H109.548H106.162V144.594H109.548ZM109.548 125.539H112.933C112.933 123.626 112.884 121.983 112.778 120.635C112.677 119.347 112.51 118.108 112.188 117.121L108.969 118.171L105.75 119.221C105.814 119.416 105.936 119.998 106.028 121.165C106.115 122.272 106.162 123.723 106.162 125.539H109.548ZM108.969 118.171L112.194 117.142C111.764 115.793 111.065 114.162 109.734 113.097L107.619 115.741L105.504 118.385C105.308 118.228 105.291 118.136 105.383 118.301C105.467 118.454 105.596 118.737 105.744 119.2L108.969 118.171ZM107.619 115.741L109.812 113.161C108.559 112.096 107.056 111.699 105.613 111.699V115.085V118.471C105.726 118.471 105.737 118.486 105.68 118.467C105.651 118.458 105.61 118.441 105.563 118.415C105.515 118.389 105.469 118.356 105.426 118.32L107.619 115.741ZM105.613 115.085L105.338 111.71L103.447 111.865L103.723 115.239L103.998 118.614L105.888 118.459L105.613 115.085ZM103.723 115.239V111.854C103.626 111.854 104.18 111.82 104.805 112.323C105.57 112.939 105.72 113.754 105.72 114.121H102.334H98.9485C98.9485 115.233 99.3297 116.607 100.557 117.596C101.645 118.473 102.894 118.625 103.723 118.625V115.239ZM102.334 114.121H105.72C105.72 114.304 105.685 114.628 105.501 114.999C105.309 115.385 105.031 115.674 104.754 115.859C104.291 116.171 104.022 116.079 104.456 116.079V112.693V109.308C103.475 109.308 102.146 109.453 100.975 110.241C99.5653 111.189 98.9485 112.672 98.9485 114.121H102.334ZM104.456 112.693V116.079C105.734 116.079 106.967 116.17 108.155 116.35L108.66 113.002L109.166 109.654C107.628 109.422 106.058 109.308 104.456 109.308V112.693ZM108.66 113.002L108.155 116.35C109.698 116.583 111.295 116.696 112.942 116.696V113.311V109.925C111.606 109.925 110.348 109.833 109.166 109.654L108.66 113.002ZM112.942 113.311V116.696C114.612 116.696 116.232 116.583 117.797 116.351L117.301 113.002L116.805 109.653C115.593 109.832 114.307 109.925 112.942 109.925V113.311ZM117.301 113.002L117.788 116.352C119.046 116.169 120.285 116.079 121.506 116.079V112.693V109.308C119.949 109.308 118.385 109.423 116.814 109.651L117.301 113.002ZM121.506 112.693V116.079C121.94 116.079 121.671 116.171 121.207 115.859C120.931 115.674 120.652 115.385 120.461 114.999C120.277 114.628 120.241 114.304 120.241 114.121H123.627H127.013C127.013 112.672 126.396 111.189 124.987 110.241C123.816 109.453 122.486 109.308 121.506 109.308V112.693ZM123.627 114.121H120.241C120.241 113.754 120.391 112.939 121.156 112.323C121.781 111.82 122.336 111.854 122.239 111.854V115.239V118.625C123.067 118.625 124.316 118.473 125.404 117.596C126.632 116.607 127.013 115.233 127.013 114.121H123.627Z" fill="white" mask="url(#path-2-outside-1_848_47)"/>
</svg>
