<svg width="107" height="29" viewBox="0 0 107 29" fill="none" xmlns="http://www.w3.org/2000/svg">
<path d="M0.965948 7.61879H6.9463C9.38011 7.61879 11.2741 8.19646 12.6283 9.35181C13.992 10.4977 14.6739 12.0981 14.6739 14.1531C14.6739 15.4884 14.3519 16.6722 13.7079 17.7044C13.0734 18.7367 12.188 19.5463 11.0516 20.1335C9.92464 20.7112 8.63197 21 7.17358 21H0.965948L0.894922 19.9772L2.32964 19.6505C2.36752 19.5369 2.40066 19.1533 2.42907 18.4999C2.45748 17.837 2.47169 17.0652 2.47169 16.1845V12.4627C2.47169 11.5347 2.45748 10.7486 2.42907 10.1047C2.40066 9.45124 2.36752 9.07718 2.32964 8.98248L0.894922 8.65576L0.965948 7.61879ZM5.11384 9.01089C5.10437 9.20029 5.0949 9.56015 5.08543 10.0905C5.07596 10.6113 5.07122 11.4021 5.07122 12.4627V16.1845C5.07122 16.8284 5.08069 17.4535 5.09963 18.0595C5.11858 18.6562 5.14699 19.1155 5.18487 19.4374C5.98982 19.5795 6.71902 19.6505 7.37245 19.6505C10.2703 19.6505 11.7192 18.0501 11.7192 14.8492C11.7192 12.7752 11.2504 11.26 10.3129 10.3036C9.38484 9.34707 8.18214 8.86884 6.70481 8.86884C6.19343 8.86884 5.6631 8.91619 5.11384 9.01089ZM21.3224 21.1705C20.2902 21.1705 19.3858 20.9574 18.6093 20.5312C17.8327 20.1051 17.2266 19.5132 16.791 18.7556C16.3554 17.9885 16.1376 17.1078 16.1376 16.1134C16.1376 15.0339 16.3838 14.1058 16.8762 13.3292C17.3687 12.5527 18.0126 11.9561 18.8081 11.5394C19.6131 11.1132 20.4843 10.9002 21.4219 10.9002C22.8897 10.9002 24.0782 11.3689 24.9874 12.3065C25.8965 13.244 26.351 14.4562 26.351 15.943C26.351 16.9279 26.1285 17.8181 25.6834 18.6135C25.2383 19.3996 24.6322 20.0246 23.8652 20.4886C23.1075 20.9432 22.26 21.1705 21.3224 21.1705ZM21.5497 19.9062C22.2032 19.9062 22.7193 19.6032 23.0981 18.9971C23.4769 18.3815 23.6663 17.5624 23.6663 16.5396C23.6663 15.2233 23.4295 14.1579 22.956 13.3434C22.492 12.529 21.8717 12.1218 21.0952 12.1218C20.4228 12.1218 19.883 12.4343 19.4758 13.0593C19.0686 13.6844 18.865 14.5272 18.865 15.5879C18.865 16.8379 19.1159 17.8701 19.6178 18.6846C20.1292 19.499 20.7732 19.9062 21.5497 19.9062ZM32.403 21.1705C31.4939 21.1705 30.6652 20.9716 29.9171 20.5738C29.169 20.1666 28.5724 19.5937 28.1273 18.855C27.6822 18.1164 27.4596 17.2546 27.4596 16.2697C27.4596 15.2848 27.6964 14.3899 28.1699 13.5849C28.6434 12.7705 29.2873 12.1218 30.1018 11.6388C30.9257 11.1464 31.8632 10.9002 32.9144 10.9002C33.9087 10.9002 34.7137 11.0943 35.3292 11.4826C35.9543 11.8614 36.2668 12.3159 36.2668 12.8463C36.2668 13.1682 36.1673 13.4239 35.9685 13.6133C35.7696 13.7933 35.5186 13.8832 35.2156 13.8832C34.7421 13.8832 34.2639 13.656 33.7809 13.2014L32.332 11.8519L33.3405 12.0934C32.8197 11.9892 32.3178 12.0555 31.8348 12.2923C31.3518 12.529 30.9541 12.9268 30.6416 13.4855C30.329 14.0442 30.1728 14.7592 30.1728 15.6305C30.1728 16.8142 30.4664 17.7186 31.0535 18.3436C31.6407 18.9592 32.3699 19.267 33.2411 19.267C33.743 19.267 34.2023 19.1675 34.619 18.9687C35.0357 18.7698 35.4429 18.4336 35.8406 17.9601L36.4941 18.5567C36.0584 19.4374 35.4855 20.0956 34.7752 20.5312C34.065 20.9574 33.2742 21.1705 32.403 21.1705ZM47.1911 19.1391L48.6684 19.4943V20.3608L45.174 21.2557L44.691 20.9574L44.7052 19.4232L44.6484 19.3948C44.2033 20.0767 43.7345 20.5454 43.2421 20.8011C42.7496 21.0568 42.2335 21.1847 41.6937 21.1847C40.6236 21.1847 39.7476 20.8579 39.0658 20.2045C38.3839 19.5511 38.043 18.5615 38.043 17.2356V15.2753C38.043 14.5935 38.0098 13.8785 37.9436 13.1304L36.3952 12.8037V11.8945L40.0743 10.9428L40.6141 11.3263C40.5478 12.2639 40.5147 13.405 40.5147 14.7498L40.5005 16.9231C40.5005 17.7754 40.6899 18.391 41.0687 18.7698C41.457 19.1486 41.9683 19.338 42.6028 19.338C42.9532 19.338 43.3084 19.2433 43.6682 19.0539C44.0375 18.8645 44.3595 18.552 44.6342 18.1164V15.7299C44.6342 15.209 44.6247 14.7403 44.6058 14.3236C44.5868 13.8974 44.5584 13.4997 44.5205 13.1304L42.8869 12.8037V11.8945L46.6229 10.9428L47.1059 11.2979C47.0774 11.7998 47.0585 12.3017 47.049 12.8037C47.049 13.3056 47.049 13.9116 47.049 14.6219V16.3691C47.049 16.9468 47.0632 17.4629 47.0916 17.9175C47.1201 18.3721 47.1532 18.7793 47.1911 19.1391ZM59.7064 11.511L55.7573 21.0568H54.6493L49.6633 8.98248L48.5269 8.65576L48.5695 7.61879H53.7828L53.8396 8.65576L52.689 8.98248L56.3539 18.301H55.5016L58.8683 9.56489L59.7064 11.511ZM63.0019 21.0568L58.0302 8.98248L56.8653 8.65576L56.9364 7.61879H62.3059L62.3627 8.65576L60.9422 8.98248L64.6213 18.301H63.8969L67.3345 8.98248L65.7435 8.65576L65.8146 7.61879H70.275L70.346 8.65576L69.167 8.98248L64.1241 21.0568H63.0019ZM70.2755 21L70.2187 20.0341L71.7244 19.6789C71.7434 19.5937 71.7623 19.3569 71.7813 18.9687C71.8097 18.5804 71.8286 18.0406 71.8381 17.3493L71.8523 15.7015C71.8523 15.1806 71.8334 14.7071 71.7955 14.281C71.7671 13.8548 71.7244 13.4713 71.6676 13.1304L70.1477 12.8037V11.8945L73.9262 10.9428L74.4376 11.3263C74.3903 11.7904 74.3524 12.2639 74.324 12.7468C74.305 13.2203 74.2956 13.7601 74.2956 14.3662V17.2641C74.2956 17.8512 74.305 18.3721 74.324 18.8266C74.3524 19.2812 74.3855 19.5653 74.4234 19.6789L75.9434 20.0341L75.8723 21H70.2755ZM73.1165 8.7836C72.5957 8.7836 72.1743 8.62261 71.8523 8.30063C71.5398 7.97865 71.3835 7.59511 71.3835 7.15002C71.3835 6.70492 71.5398 6.32139 71.8523 5.9994C72.1743 5.67742 72.5957 5.51643 73.1165 5.51643C73.6279 5.51643 74.0351 5.67742 74.3382 5.9994C74.6412 6.32139 74.7927 6.70492 74.7927 7.15002C74.7927 7.59511 74.6412 7.97865 74.3382 8.30063C74.0351 8.62261 73.6279 8.7836 73.1165 8.7836ZM76.3985 21L76.3275 20.0625L77.6343 19.6789C77.6628 19.4327 77.6912 18.945 77.7196 18.2158C77.748 17.4771 77.7622 16.6864 77.7622 15.8435V12.7468C77.7622 12.0082 77.7575 11.2742 77.748 10.545C77.7385 9.80637 77.7243 9.1482 77.7054 8.57053C77.6959 7.98338 77.6864 7.55723 77.677 7.29207L75.9866 7.06479L75.9439 6.16986L79.7793 5.13289L80.3475 5.50222C80.3096 6.12725 80.2765 6.7428 80.2481 7.34889C80.2291 7.95497 80.2149 8.63682 80.2055 9.39442C80.196 10.152 80.1913 11.0706 80.1913 12.1502L80.1771 17.4913C80.1771 18.0406 80.1865 18.5141 80.2055 18.9118C80.2339 19.3096 80.2528 19.5653 80.2623 19.6789L81.6828 20.0625L81.626 21H76.3985ZM87.791 21H84.4954C84.2397 20.6685 84.0219 20.3987 83.842 20.1903C83.6715 19.9725 83.4963 19.7642 83.3164 19.5653L80.4612 16.3833H79.8645L79.893 15.6873L80.6458 15.4742L83.9272 12.3065L82.4357 12.0508L82.4783 11.0848H87.3222L87.3933 12.0508L85.8875 12.3207L81.9811 15.6873L82.2794 14.764L85.6602 18.5141C85.897 18.7887 86.1337 19.0492 86.3705 19.2954C86.6072 19.5416 86.7966 19.7263 86.9387 19.8494L87.8762 20.0341L87.791 21ZM87.6637 21L87.6069 20.0341L89.1126 19.6789C89.1316 19.5937 89.1505 19.3569 89.1695 18.9687C89.1979 18.5804 89.2168 18.0406 89.2263 17.3493L89.2405 15.7015C89.2405 15.1806 89.2215 14.7071 89.1837 14.281C89.1553 13.8548 89.1126 13.4713 89.0558 13.1304L87.5359 12.8037V11.8945L91.3144 10.9428L91.8258 11.3263C91.7785 11.7904 91.7406 12.2639 91.7122 12.7468C91.6932 13.2203 91.6838 13.7601 91.6838 14.3662V17.2641C91.6838 17.8512 91.6932 18.3721 91.7122 18.8266C91.7406 19.2812 91.7737 19.5653 91.8116 19.6789L93.3316 20.0341L93.2605 21H87.6637ZM90.5047 8.7836C89.9839 8.7836 89.5625 8.62261 89.2405 8.30063C88.928 7.97865 88.7717 7.59511 88.7717 7.15002C88.7717 6.70492 88.928 6.32139 89.2405 5.9994C89.5625 5.67742 89.9839 5.51643 90.5047 5.51643C91.0161 5.51643 91.4233 5.67742 91.7264 5.9994C92.0294 6.32139 92.1809 6.70492 92.1809 7.15002C92.1809 7.59511 92.0294 7.97865 91.7264 8.30063C91.4233 8.62261 91.0161 8.7836 90.5047 8.7836Z" fill="#E8E8E6"/>
</svg>
