<svg width="91" height="17" viewBox="0 0 91 17" fill="none" xmlns="http://www.w3.org/2000/svg">
<path d="M7.45204 16.1989C6.041 16.1989 4.78148 15.9432 3.67348 15.4318C2.56548 14.9204 1.69424 14.1675 1.05974 13.1732C0.425246 12.1694 0.107999 10.9335 0.107999 9.46565C0.107999 8.09249 0.429981 6.87558 1.07395 5.81494C1.71791 4.75429 2.6223 3.92566 3.78712 3.32904C4.95194 2.72296 6.3109 2.41991 7.86399 2.41991C8.52689 2.41991 9.20874 2.4862 9.90953 2.61879C10.6103 2.75137 11.2164 2.9313 11.7278 3.15858L11.884 6.49678L10.6482 6.58201L9.90953 4.29499C9.60648 4.12453 9.25136 3.99668 8.84414 3.91145C8.4464 3.82622 8.05339 3.7836 7.66512 3.7836C6.17832 3.7836 5.06558 4.27605 4.32692 5.26094C3.59772 6.23635 3.23312 7.48167 3.23312 8.99688C3.23312 10.228 3.43673 11.2744 3.84394 12.1362C4.26063 12.998 4.81936 13.6562 5.52015 14.1107C6.22093 14.5653 7.00221 14.7926 7.86399 14.7926C8.79206 14.7926 9.57334 14.57 10.2078 14.1249L11.1028 12.0084L12.4238 12.1646L11.7704 15.1193C11.2685 15.4129 10.634 15.6685 9.86691 15.8864C9.09983 16.0947 8.29488 16.1989 7.45204 16.1989ZM18.4474 16.1705C17.4151 16.1705 16.5107 15.9574 15.7342 15.5312C14.9576 15.1051 14.3516 14.5132 13.9159 13.7556C13.4803 12.9885 13.2625 12.1078 13.2625 11.1134C13.2625 10.0339 13.5087 9.10579 14.0012 8.32924C14.4936 7.55269 15.1376 6.95608 15.9331 6.5394C16.738 6.11324 17.6093 5.90017 18.5468 5.90017C20.0147 5.90017 21.2032 6.36893 22.1123 7.30647C23.0214 8.24401 23.476 9.45618 23.476 10.943C23.476 11.9279 23.2534 12.8181 22.8083 13.6135C22.3632 14.3996 21.7572 15.0246 20.9901 15.4886C20.2325 15.9432 19.3849 16.1705 18.4474 16.1705ZM18.6746 14.9062C19.3281 14.9062 19.8442 14.6032 20.223 13.9971C20.6018 13.3815 20.7912 12.5624 20.7912 11.5396C20.7912 10.2233 20.5545 9.15787 20.081 8.34345C19.6169 7.52902 18.9966 7.12181 18.2201 7.12181C17.5477 7.12181 17.0079 7.43432 16.6007 8.05934C16.1935 8.68437 15.9899 9.5272 15.9899 10.5879C15.9899 11.8379 16.2408 12.8701 16.7428 13.6846C17.2541 14.499 17.8981 14.9062 18.6746 14.9062ZM32.44 16.2557L31.9286 15.9574L31.957 14.4658L31.886 14.4374C31.4693 15.0909 31.0242 15.5454 30.5507 15.8011C30.0772 16.0568 29.5847 16.1847 29.0734 16.1847C28.2495 16.1847 27.4919 15.9858 26.8005 15.5881C26.1187 15.1808 25.5742 14.6174 25.167 13.8976C24.7692 13.1779 24.5703 12.3398 24.5703 11.3833C24.5703 10.2753 24.826 9.31413 25.3374 8.4997C25.8583 7.6758 26.5259 7.04131 27.3403 6.59622C28.1642 6.14165 29.0213 5.91437 29.9115 5.91437C30.2524 5.91437 30.6028 5.95225 30.9626 6.02801C31.332 6.10377 31.6397 6.21741 31.886 6.36893C31.886 5.99013 31.8812 5.5261 31.8718 4.97683C31.8623 4.4181 31.8481 3.89251 31.8291 3.40007C31.8197 2.89815 31.8102 2.54776 31.8007 2.34889L30.0677 2.06479L30.0109 1.16986L33.9457 0.132891L34.4571 0.502224C34.4192 1.44923 34.3861 2.33942 34.3577 3.17278C34.3292 4.00615 34.315 4.8774 34.315 5.78653L34.2866 11.0708C34.2866 11.8284 34.3056 12.4582 34.3435 12.9601C34.3813 13.462 34.4145 13.855 34.4429 14.1391L35.9486 14.4943V15.3608L32.44 16.2557ZM29.9541 14.2812C30.2761 14.2812 30.6028 14.2007 30.9342 14.0397C31.2751 13.8787 31.5971 13.5946 31.9002 13.1874V8.18719C31.6634 7.80839 31.3651 7.53849 31.0053 7.3775C30.6549 7.21651 30.3045 7.13601 29.9541 7.13601C29.1396 7.13601 28.4815 7.45799 27.9796 8.10196C27.4871 8.74592 27.2409 9.60296 27.2409 10.6731C27.2409 11.8379 27.5013 12.7328 28.0222 13.3578C28.5525 13.9734 29.1965 14.2812 29.9541 14.2812ZM41.5318 16.1705C40.5848 16.1705 39.742 15.9621 39.0033 15.5454C38.2646 15.1193 37.6822 14.5369 37.2561 13.7982C36.8299 13.0501 36.6168 12.1836 36.6168 11.1987C36.6168 10.138 36.8489 9.20996 37.3129 8.41447C37.7864 7.61898 38.3972 6.99869 39.1453 6.5536C39.903 6.10851 40.7126 5.8907 41.5744 5.90017C42.8529 5.90964 43.8425 6.31685 44.5433 7.12181C45.2441 7.92676 45.5945 9.00635 45.5945 10.3606V10.8577H38.7618V9.73555H43.6768L43.3501 10.1901V9.53667C43.3501 8.75066 43.1749 8.13984 42.8245 7.70422C42.4741 7.25912 41.9958 7.03657 41.3898 7.03657C40.7837 7.03657 40.2581 7.297 39.813 7.81786C39.3679 8.33871 39.1453 9.12473 39.1453 10.1759V10.5594C39.1453 11.7053 39.4389 12.6144 40.0261 13.2868C40.6227 13.9497 41.4087 14.2812 42.3841 14.2812C42.905 14.2812 43.3737 14.1865 43.7904 13.9971C44.2166 13.7982 44.6285 13.462 45.0263 12.9885L45.6655 13.5851C45.2299 14.4564 44.6522 15.1051 43.9325 15.5312C43.2222 15.9574 42.422 16.1705 41.5318 16.1705ZM57.0302 6.51099L53.0811 16.0568H51.9731L46.9871 3.98248L45.8507 3.65576L45.8933 2.61879H51.1066L51.1634 3.65576L50.0128 3.98248L53.6777 13.301H52.8254L56.1921 4.56489L57.0302 6.51099ZM60.3257 16.0568L55.354 3.98248L54.1891 3.65576L54.2602 2.61879H59.6297L59.6865 3.65576L58.266 3.98248L61.9451 13.301H61.2207L64.6583 3.98248L63.0673 3.65576L63.1384 2.61879H67.5988L67.6698 3.65576L66.4908 3.98248L61.4479 16.0568H60.3257ZM67.5993 16L67.5425 15.0341L69.0482 14.6789C69.0672 14.5937 69.0861 14.3569 69.1051 13.9687C69.1335 13.5804 69.1524 13.0406 69.1619 12.3493L69.1761 10.7015C69.1761 10.1806 69.1572 9.70714 69.1193 9.28098C69.0909 8.85483 69.0482 8.47129 68.9914 8.13037L67.4715 7.80365V6.89452L71.25 5.94278L71.7614 6.32632C71.7141 6.79035 71.6762 7.26386 71.6478 7.74683C71.6288 8.22033 71.6194 8.76013 71.6194 9.36621V12.2641C71.6194 12.8512 71.6288 13.3721 71.6478 13.8266C71.6762 14.2812 71.7093 14.5653 71.7472 14.6789L73.2672 15.0341L73.1961 16H67.5993ZM70.4403 3.7836C69.9195 3.7836 69.4981 3.62261 69.1761 3.30063C68.8636 2.97865 68.7073 2.59511 68.7073 2.15002C68.7073 1.70492 68.8636 1.32139 69.1761 0.999403C69.4981 0.67742 69.9195 0.516429 70.4403 0.516429C70.9517 0.516429 71.3589 0.67742 71.662 0.999403C71.965 1.32139 72.1165 1.70492 72.1165 2.15002C72.1165 2.59511 71.965 2.97865 71.662 3.30063C71.3589 3.62261 70.9517 3.7836 70.4403 3.7836ZM73.7223 16L73.6513 15.0625L74.9581 14.6789C74.9866 14.4327 75.015 13.945 75.0434 13.2158C75.0718 12.4771 75.086 11.6864 75.086 10.8435V7.74683C75.086 7.00816 75.0813 6.27423 75.0718 5.54504C75.0623 4.80637 75.0481 4.1482 75.0292 3.57053C75.0197 2.98338 75.0102 2.55723 75.0008 2.29207L73.3103 2.06479L73.2677 1.16986L77.1031 0.132891L77.6713 0.502224C77.6334 1.12725 77.6003 1.7428 77.5719 2.34889C77.5529 2.95497 77.5387 3.63682 77.5293 4.39442C77.5198 5.15203 77.5151 6.07063 77.5151 7.15022L77.5009 12.4913C77.5009 13.0406 77.5103 13.5141 77.5293 13.9118C77.5577 14.3096 77.5766 14.5653 77.5861 14.6789L79.0066 15.0625L78.9498 16H73.7223ZM85.1148 16H81.8192C81.5635 15.6685 81.3457 15.3987 81.1658 15.1903C80.9953 14.9725 80.8201 14.7642 80.6402 14.5653L77.785 11.3833H77.1883L77.2168 10.6873L77.9696 10.4742L81.251 7.30647L79.7595 7.05078L79.8021 6.08483H84.646L84.7171 7.05078L83.2113 7.32068L79.3049 10.6873L79.6032 9.76396L82.984 13.5141C83.2208 13.7887 83.4575 14.0492 83.6943 14.2954C83.931 14.5416 84.1204 14.7263 84.2625 14.8494L85.2 15.0341L85.1148 16ZM84.9875 16L84.9307 15.0341L86.4364 14.6789C86.4554 14.5937 86.4743 14.3569 86.4933 13.9687C86.5217 13.5804 86.5406 13.0406 86.5501 12.3493L86.5643 10.7015C86.5643 10.1806 86.5453 9.70714 86.5075 9.28098C86.4791 8.85483 86.4364 8.47129 86.3796 8.13037L84.8597 7.80365V6.89452L88.6382 5.94278L89.1496 6.32632C89.1023 6.79035 89.0644 7.26386 89.036 7.74683C89.017 8.22033 89.0076 8.76013 89.0076 9.36621V12.2641C89.0076 12.8512 89.017 13.3721 89.036 13.8266C89.0644 14.2812 89.0975 14.5653 89.1354 14.6789L90.6554 15.0341L90.5843 16H84.9875ZM87.8285 3.7836C87.3077 3.7836 86.8863 3.62261 86.5643 3.30063C86.2518 2.97865 86.0955 2.59511 86.0955 2.15002C86.0955 1.70492 86.2518 1.32139 86.5643 0.999403C86.8863 0.67742 87.3077 0.516429 87.8285 0.516429C88.3399 0.516429 88.7471 0.67742 89.0502 0.999403C89.3532 1.32139 89.5047 1.70492 89.5047 2.15002C89.5047 2.59511 89.3532 2.97865 89.0502 3.30063C88.7471 3.62261 88.3399 3.7836 87.8285 3.7836Z" fill="#E8E8E6"/>
</svg>
