<svg width="14" height="16" viewBox="0 0 14 16" fill="none" xmlns="http://www.w3.org/2000/svg">
<path d="M6.56115 0C7.98931 0 9.15335 1.13083 9.20672 2.54593L9.20863 2.64748H12.5468C12.8646 2.64748 13.1223 2.90516 13.1223 3.22302C13.1223 3.52102 12.8958 3.76612 12.6056 3.79559L12.5468 3.79856H12.0444L11.2602 14.1904C11.1832 15.2111 10.3326 16 9.30895 16H3.81335C2.78975 16 1.9391 15.2111 1.86206 14.1904L1.07741 3.79856H0.57554C0.277544 3.79856 0.0324448 3.57209 0.0029714 3.28187L0 3.22302C0 2.92503 0.226475 2.67993 0.516694 2.65045L0.57554 2.64748H3.91367C3.91367 1.18532 5.09899 0 6.56115 0ZM10.8902 3.79856H2.23212L3.00988 14.1038C3.0416 14.5241 3.39187 14.8489 3.81335 14.8489H9.30895C9.73044 14.8489 10.0807 14.5241 10.1124 14.1038L10.8902 3.79856ZM8.05755 6.21583C8.35555 6.21583 8.60065 6.4423 8.63012 6.73252L8.63309 6.79137V11.8561C8.63309 12.174 8.37542 12.4317 8.05755 12.4317C7.75956 12.4317 7.51446 12.2052 7.48499 11.915L7.48202 11.8561V6.79137C7.48202 6.47351 7.73969 6.21583 8.05755 6.21583ZM5.06475 6.21583C5.36274 6.21583 5.60784 6.4423 5.63732 6.73252L5.64029 6.79137V11.8561C5.64029 12.174 5.38261 12.4317 5.06475 12.4317C4.76675 12.4317 4.52165 12.2052 4.49218 11.915L4.48921 11.8561V6.79137C4.48921 6.47351 4.74689 6.21583 5.06475 6.21583ZM6.56115 1.15108C5.76321 1.15108 5.11114 1.77563 5.06712 2.56257L5.06475 2.64748H8.05755C8.05755 1.82104 7.38759 1.15108 6.56115 1.15108Z" fill="#8D9191"/>
</svg>
