<svg width="14" height="14" viewBox="0 0 14 14" fill="none" xmlns="http://www.w3.org/2000/svg">
<path d="M8.39587 8.57812L5.39584 5.57812M8.39587 8.57812L4.647 12.3269C4.15301 12.8209 3.55338 13.2109 2.86495 13.3297C2.16983 13.4496 1.3072 13.4895 0.89583 13.0781C0.484462 12.6667 0.524362 11.8041 0.64425 11.109C0.762982 10.4206 1.15301 9.82095 1.647 9.32692L5.39584 5.57812M8.39587 8.57812C8.39587 8.57812 10.6458 6.32812 9.1458 4.82812C7.6458 3.32812 5.39584 5.57812 5.39584 5.57812M0.5625 6.9375C0.5625 2.0625 2.0625 0.5625 6.9375 0.5625C11.8125 0.5625 13.3125 2.0625 13.3125 6.9375C13.3125 11.8125 11.8125 13.3125 6.9375 13.3125" stroke="#8D9191" stroke-width="1.125" stroke-linecap="round" stroke-linejoin="round"/>
</svg>
