<svg width="13" height="13" viewBox="0 0 13 13" fill="none" xmlns="http://www.w3.org/2000/svg">
<g clip-path="url(#clip0_775_42)">
<path d="M11.5261 3.46668L6.35862 8.63416C5.84404 9.14874 4.31653 9.38707 3.97528 9.04582C3.63403 8.70457 3.86694 7.17707 4.38153 6.66249L9.55446 1.48958C9.68202 1.35041 9.83645 1.23853 10.0085 1.1607C10.1805 1.08286 10.3665 1.04066 10.5552 1.03669C10.744 1.03272 10.9316 1.06702 11.1067 1.13756C11.2818 1.20809 11.4409 1.31339 11.5742 1.44707C11.7075 1.58075 11.8123 1.74006 11.8824 1.91537C11.9524 2.09069 11.9863 2.27838 11.9818 2.46712C11.9773 2.65587 11.9345 2.84176 11.8563 3.01355C11.7779 3.18534 11.6657 3.3395 11.5261 3.46668Z" stroke="#8D9191" stroke-width="0.8125" stroke-linecap="round" stroke-linejoin="round"/>
<path d="M5.95801 2.16666H3.24967C2.67504 2.16666 2.12397 2.39493 1.71764 2.80126C1.31131 3.20759 1.08301 3.75869 1.08301 4.33332V9.74999C1.08301 10.3246 1.31131 10.8757 1.71764 11.282C2.12397 11.6884 2.67504 11.9167 3.24967 11.9167H9.20801C10.4051 11.9167 10.833 10.9417 10.833 9.74999V7.04166" stroke="#8D9191" stroke-width="0.8125" stroke-linecap="round" stroke-linejoin="round"/>
</g>
<defs>
<clipPath id="clip0_775_42">
<rect width="13" height="13" fill="white"/>
</clipPath>
</defs>
</svg>
