<svg width="14" height="14" viewBox="0 0 14 14" fill="none" xmlns="http://www.w3.org/2000/svg">
<path d="M2.0202 9.40625C2.0202 9.04383 1.7317 8.75 1.37582 8.75C1.01995 8.75 0.731445 9.04383 0.731445 9.40625H2.0202ZM13.7478 9.40625C13.7478 9.04383 13.4593 8.75 13.1035 8.75C12.7476 8.75 12.4591 9.04383 12.4591 9.40625H13.7478ZM6.73153 9.87761C6.5127 10.1634 6.5627 10.5758 6.84331 10.7987C7.12391 11.0216 7.52884 10.9707 7.74775 10.6849L6.73153 9.87761ZM11.0985 6.30989C11.3173 6.02411 11.2673 5.61173 10.9867 5.38878C10.7061 5.16591 10.3012 5.21684 10.0823 5.50261L11.0985 6.30989ZM6.73153 10.6849C6.95044 10.9707 7.35537 11.0216 7.63597 10.7987C7.91658 10.5758 7.96658 10.1634 7.74775 9.87761L6.73153 10.6849ZM4.39698 5.50261C4.1781 5.21684 3.77318 5.16591 3.49258 5.38878C3.21197 5.61173 3.16192 6.02411 3.38079 6.30989L4.39698 5.50261ZM6.59526 10.2813C6.59526 10.6437 6.88377 10.9375 7.23964 10.9375C7.59551 10.9375 7.88402 10.6437 7.88402 10.2813H6.59526ZM7.88402 0.65625C7.88402 0.293816 7.59551 0 7.23964 0C6.88377 0 6.59526 0.293816 6.59526 0.65625H7.88402ZM0.731445 9.40625V10.2813H2.0202V9.40625H0.731445ZM0.731445 10.2813C0.731445 12.0777 2.1298 13.5625 3.88889 13.5625V12.25C2.87212 12.25 2.0202 11.3844 2.0202 10.2813H0.731445ZM3.88889 13.5625H10.5904V12.25H3.88889V13.5625ZM10.5904 13.5625C12.3495 13.5625 13.7478 12.0777 13.7478 10.2813H12.4591C12.4591 11.3844 11.6071 12.25 10.5904 12.25V13.5625ZM13.7478 10.2813V9.40625H12.4591V10.2813H13.7478ZM7.74775 10.6849L11.0985 6.30989L10.0823 5.50261L6.73153 9.87761L7.74775 10.6849ZM7.74775 9.87761L4.39698 5.50261L3.38079 6.30989L6.73153 10.6849L7.74775 9.87761ZM7.88402 10.2813V0.65625H6.59526V10.2813H7.88402Z" fill="#8D9191"/>
</svg>
