<svg width="14" height="16" viewBox="0 0 14 16" fill="none" xmlns="http://www.w3.org/2000/svg">
<path d="M0.53125 6.3638L1.06052 6.31805C1.03602 6.03461 0.792575 5.82078 0.50835 5.83305C0.224117 5.84531 0 6.07931 0 6.3638H0.53125ZM12.7402 7.65524L12.2404 10.545L13.2874 10.7261L13.7871 7.83629L12.7402 7.65524ZM7.78812 14.1667H4.49533V15.2292H7.78812V14.1667ZM3.84978 13.5734L3.2745 6.92027L2.21595 7.01179L2.79123 13.6649L3.84978 13.5734ZM12.2404 10.545C11.8814 12.6209 10.0097 14.1667 7.78812 14.1667V15.2292C10.4983 15.2292 12.8356 13.3386 13.2874 10.7261L12.2404 10.545ZM7.79507 2.72719L7.32565 5.59209L8.3742 5.76388L8.84361 2.89898L7.79507 2.72719ZM3.49756 6.37188L4.51667 5.49372L3.82308 4.68884L2.80397 5.56702L3.49756 6.37188ZM6.37075 2.63646L6.7077 1.33748L5.67928 1.07069L5.34231 2.36967L6.37075 2.63646ZM7.21664 1.08262L7.31935 1.11561L7.64433 0.104029L7.54163 0.0710421L7.21664 1.08262ZM5.8604 3.94257C6.08133 3.5289 6.25295 3.09073 6.37075 2.63646L5.34231 2.36967C5.24573 2.742 5.10495 3.10174 4.92321 3.44196L5.8604 3.94257ZM7.31935 1.11561C7.53638 1.18534 7.69052 1.35298 7.74116 1.5483L8.76966 1.28152C8.6241 0.720506 8.19471 0.280836 7.64433 0.104029L7.31935 1.11561ZM6.7077 1.33748C6.73257 1.24185 6.80163 1.15396 6.90611 1.10361L6.44484 0.146444C6.06801 0.328018 5.78496 0.663188 5.67928 1.07069L6.7077 1.33748ZM6.90611 1.10361C7.00152 1.05762 7.11386 1.04961 7.21664 1.08262L7.54163 0.0710421C7.18059 -0.0449474 6.78668 -0.0182786 6.44484 0.146444L6.90611 1.10361ZM8.43179 6.89505H12.1017V5.83255H8.43179V6.89505ZM1.74874 14.2772L1.06052 6.31805L0.00197623 6.40956L0.690193 14.3687L1.74874 14.2772ZM1.0625 14.3527V6.3638H0V14.3527H1.0625ZM0.690193 14.3687C0.68085 14.2607 0.766034 14.1667 0.876003 14.1667V15.2292C1.39023 15.2292 1.79295 14.7885 1.74874 14.2772L0.690193 14.3687ZM8.84361 2.89898C8.9318 2.36056 8.90665 1.80963 8.76966 1.28152L7.74116 1.5483C7.84104 1.9332 7.85938 2.33475 7.79507 2.72719L8.84361 2.89898ZM4.49533 14.1667C4.15964 14.1667 3.87884 13.9095 3.84978 13.5734L2.79123 13.6649C2.8677 14.5493 3.60733 15.2292 4.49533 15.2292V14.1667ZM4.51667 5.49372C4.99823 5.07875 5.51735 4.5848 5.8604 3.94257L4.92321 3.44196C4.67786 3.90126 4.28719 4.28891 3.82308 4.68884L4.51667 5.49372ZM13.7871 7.83629C13.968 6.79043 13.1637 5.83255 12.1017 5.83255V6.89505C12.5031 6.89505 12.8089 7.25751 12.7402 7.65524L13.7871 7.83629ZM0.876003 14.1667C0.979568 14.1667 1.0625 14.2505 1.0625 14.3527H0C0 14.8362 0.39163 15.2292 0.876003 15.2292V14.1667ZM7.32565 5.59209C7.21395 6.27414 7.73967 6.89505 8.43179 6.89505V5.83255C8.39644 5.83255 8.36818 5.80055 8.3742 5.76388L7.32565 5.59209ZM3.2745 6.92027C3.25649 6.71202 3.33961 6.50802 3.49756 6.37188L2.80397 5.56702C2.38724 5.92613 2.16856 6.46375 2.21595 7.01179L3.2745 6.92027Z" fill="#8D9191"/>
</svg>
