<svg width="10" height="11" viewBox="0 0 10 11" fill="none" xmlns="http://www.w3.org/2000/svg">
<path d="M1.13839 2.27753H0.379462C0.278822 2.27753 0.182305 2.23755 0.111142 2.16639C0.0399789 2.09522 0 1.99871 0 1.89807C0 1.79743 0.0399789 1.70091 0.111142 1.62975C0.182305 1.55858 0.278822 1.51861 0.379462 1.51861H3.41516V0.379462C3.41516 0.278822 3.45513 0.182305 3.5263 0.111142C3.59746 0.0399789 3.69398 0 3.79462 0H6.83031C6.93095 0 7.02747 0.0399789 7.09863 0.111142C7.16979 0.182305 7.20977 0.278822 7.20977 0.379462V1.51861H10.2455C10.3461 1.51861 10.4426 1.55858 10.5138 1.62975C10.5849 1.70091 10.6249 1.79743 10.6249 1.89807C10.6249 1.99871 10.5849 2.09522 10.5138 2.16639C10.4426 2.23755 10.3461 2.27753 10.2455 2.27753H9.48654V10.2462C9.48654 10.3469 9.44656 10.4434 9.3754 10.5145C9.30424 10.5857 9.20772 10.6257 9.10708 10.6257H1.51785C1.41721 10.6257 1.32069 10.5857 1.24953 10.5145C1.17836 10.4434 1.13839 10.3469 1.13839 10.2462V2.27753ZM6.45085 1.51861V0.759682H4.17408V1.51861H6.45085ZM1.89731 9.86677H8.72762V2.27753H1.89731V9.86677ZM4.17408 8.34892C4.07344 8.34892 3.97692 8.30894 3.90576 8.23778C3.8346 8.16661 3.79462 8.0701 3.79462 7.96946V4.17484C3.79462 4.0742 3.8346 3.97768 3.90576 3.90652C3.97692 3.83536 4.07344 3.79538 4.17408 3.79538C4.27472 3.79538 4.37124 3.83536 4.4424 3.90652C4.51356 3.97768 4.55354 4.0742 4.55354 4.17484V7.96946C4.55354 8.0701 4.51356 8.16661 4.4424 8.23778C4.37124 8.30894 4.27472 8.34892 4.17408 8.34892ZM6.45085 8.34892C6.35021 8.34892 6.25369 8.30894 6.18253 8.23778C6.11137 8.16661 6.07139 8.0701 6.07139 7.96946V4.17484C6.07139 4.0742 6.11137 3.97768 6.18253 3.90652C6.25369 3.83536 6.35021 3.79538 6.45085 3.79538C6.55149 3.79538 6.64801 3.83536 6.71917 3.90652C6.79033 3.97768 6.83031 4.0742 6.83031 4.17484V7.96946C6.83031 8.0701 6.79033 8.16661 6.71917 8.23778C6.64801 8.30894 6.55149 8.34892 6.45085 8.34892Z" fill="#8D9191"/>
</svg>
