<svg width="13" height="12" viewBox="0 0 13 12" fill="none" xmlns="http://www.w3.org/2000/svg">
<path d="M4.04108 1.65986C4.26142 1.48409 4.27927 1.18329 4.08098 0.987993C3.88268 0.792701 3.54331 0.776868 3.32298 0.952636L2.07958 1.94454C1.55263 2.36487 1.11551 2.71354 0.815365 3.02979C0.499749 3.36233 0.275391 3.71961 0.275391 4.16065C0.275391 4.60169 0.499749 4.959 0.815365 5.2915C1.11551 5.60777 1.55262 5.95645 2.07957 6.37675L3.32298 7.36868C3.54331 7.54445 3.88268 7.52859 4.08098 7.33329C4.27927 7.13798 4.26142 6.83719 4.04108 6.66143L2.82703 5.69296C2.2632 5.24317 1.88306 4.93844 1.63681 4.67901C1.40047 4.42998 1.34884 4.28461 1.34884 4.16065C1.34884 4.03669 1.40047 3.89132 1.63681 3.6423C1.88306 3.38284 2.2632 3.07812 2.82703 2.62834L4.04108 1.65986Z" fill="#98A2B3"/>
<path d="M9.00789 4.90196C9.20619 4.70665 9.54555 4.6908 9.76589 4.86656L11.0093 5.8585C11.5362 6.2788 11.9733 6.62748 12.2735 6.94375C12.5891 7.27632 12.8135 7.63356 12.8135 8.0746C12.8135 8.51564 12.5891 8.87294 12.2735 9.20545C11.9733 9.52172 11.5362 9.8704 11.0093 10.2907L9.76589 11.2826C9.54555 11.4584 9.20619 11.4425 9.00789 11.2472C8.80959 11.0519 8.82748 10.7511 9.04782 10.5754L10.2618 9.60691C10.8257 9.15712 11.2058 8.85239 11.4521 8.59296C11.6884 8.34393 11.74 8.19854 11.74 8.0746C11.74 7.95065 11.6884 7.80527 11.4521 7.55624C11.2058 7.2968 10.8257 6.99208 10.2618 6.54229L9.04782 5.57382C8.82748 5.39805 8.80959 5.09726 9.00789 4.90196Z" fill="#98A2B3"/>
<path opacity="0.5" d="M8.10403 0.954618C8.3905 1.02211 8.56097 1.28267 8.48482 1.53659L5.63173 11.0513C5.55559 11.3052 5.26161 11.4564 4.97516 11.3889C4.68869 11.3214 4.51817 11.0608 4.59431 10.8069L7.44744 1.29219C7.52358 1.03826 7.81749 0.887128 8.10403 0.954618Z" fill="#98A2B3"/>
</svg>
