<svg width="22" height="16" viewBox="0 0 22 16" fill="none" xmlns="http://www.w3.org/2000/svg">
<path d="M8.16488 13.6505C7.92513 13.8743 7.73958 14.0241 7.54996 14.1336C6.62175 14.6695 5.47816 14.6695 4.54996 14.1336C4.20791 13.9361 3.87912 13.6073 3.22153 12.9498C2.56394 12.2922 2.23514 11.9634 2.03767 11.6213C1.50177 10.6931 1.50177 9.5495 2.03767 8.6213C2.23514 8.2793 2.56394 7.9505 3.22153 7.2929L6.04996 4.46448C6.70755 3.80689 7.03634 3.47809 7.37838 3.28062C8.30659 2.74472 9.4502 2.74472 10.3784 3.28061C10.7204 3.47809 11.0492 3.80689 11.7068 4.46448C12.3644 5.12207 12.6932 5.45086 12.8907 5.7929C13.4266 6.7211 13.4266 7.8647 12.8907 8.7929C12.7812 8.9825 12.6314 9.1681 12.4075 9.4078M9.5919 6.5922C9.368 6.8319 9.2182 7.0175 9.1087 7.2071C8.57284 8.1353 8.57284 9.2789 9.1087 10.2071C9.3062 10.5492 9.635 10.878 10.2926 11.5355C10.9502 12.1931 11.279 12.5219 11.621 12.7194C12.5492 13.2553 13.6928 13.2553 14.621 12.7194C14.9631 12.5219 15.2919 12.1931 15.9495 11.5355L18.7779 8.7071C19.4355 8.0495 19.7643 7.7207 19.9617 7.3787C20.4976 6.4505 20.4976 5.30689 19.9617 4.37869C19.7643 4.03665 19.4355 3.70785 18.7779 3.05026C18.1203 2.39267 17.7915 2.06388 17.4495 1.8664C16.5212 1.3305 15.3777 1.3305 14.4495 1.8664C14.2598 1.97588 14.0743 2.12571 13.8345 2.34955" stroke="#8D9191" stroke-width="2" stroke-linecap="round"/>
</svg>
