<svg width="8" height="8" viewBox="0 0 8 8" fill="none" xmlns="http://www.w3.org/2000/svg">
<path d="M7.76812 6.74856C7.89458 6.88534 7.96318 7.06577 7.95956 7.25201C7.95594 7.43826 7.88038 7.61588 7.7487 7.74765C7.61702 7.87942 7.43946 7.9551 7.25321 7.95885C7.06696 7.9626 6.8865 7.89412 6.74962 7.76776L4.00002 5.01816L1.25042 7.76776C1.18452 7.83905 1.1049 7.89629 1.01633 7.93606C0.927764 7.97582 0.83208 7.99729 0.735014 7.99918C0.637949 8.00107 0.541502 7.98333 0.451457 7.94704C0.361413 7.91074 0.279626 7.85664 0.211001 7.78797C0.142376 7.71929 0.0883264 7.63747 0.052094 7.5474C0.0158615 7.45733 -0.0018077 7.36087 0.00014602 7.26381C0.00209974 7.16674 0.0236361 7.07107 0.0634636 6.98253C0.103291 6.894 0.160589 6.81441 0.231922 6.74856L2.98152 3.99896L0.231922 1.25076C0.160589 1.1849 0.103291 1.10532 0.0634636 1.01678C0.0236361 0.928244 0.00209974 0.832574 0.00014602 0.735509C-0.0018077 0.638445 0.0158615 0.541986 0.052094 0.451917C0.0883264 0.361848 0.142376 0.280023 0.211001 0.211351C0.279626 0.142679 0.361413 0.0885733 0.451457 0.0522789C0.541502 0.0159846 0.637949 -0.00175081 0.735014 0.000136221C0.83208 0.00202325 0.927764 0.0234938 1.01633 0.0632605C1.1049 0.103027 1.18452 0.160271 1.25042 0.231558L4.00002 2.98046L6.74962 0.230858C6.8865 0.104496 7.06696 0.0360139 7.25321 0.0397626C7.43946 0.0435114 7.61702 0.1192 7.7487 0.250968C7.88038 0.382735 7.95594 0.560354 7.95956 0.746603C7.96318 0.932851 7.89458 1.11327 7.76812 1.25006L5.01852 3.99896L7.76812 6.74856Z" fill="#E8E8E6"/>
</svg>
