<svg width="30" height="37" viewBox="0 0 30 37" fill="none" xmlns="http://www.w3.org/2000/svg">
<path d="M14.999 15C18.865 15 21.999 11.866 21.999 8C21.999 4.13401 18.865 1 14.999 1C11.133 1 7.99902 4.13401 7.99902 8C7.99902 11.866 11.133 15 14.999 15Z" stroke="#E8E8E6" stroke-width="1.82609"/>
<path d="M28.9956 29.0005C29 28.7131 29 28.4212 29 28.1255C29 23.7762 22.732 20.2505 15 20.2505C7.26801 20.2505 1 23.7762 1 28.1255C1 32.4748 1 36.0005 15 36.0005C18.9042 36.0005 21.7197 35.7263 23.75 35.2364" stroke="#E8E8E6" stroke-width="1.82609" stroke-linecap="round"/>
</svg>
