<svg width="13" height="15" viewBox="0 0 13 15" fill="none" xmlns="http://www.w3.org/2000/svg">
<path d="M3.0625 5.8323C3.3866 5.8125 3.78616 5.8125 4.3 5.8125H8.7C9.21384 5.8125 9.61341 5.8125 9.9375 5.8323M3.0625 5.8323C2.65803 5.85698 2.37107 5.91253 2.12615 6.03731C1.73806 6.23504 1.42254 6.55053 1.2248 6.93862C1 7.37986 1 7.95736 1 9.1125V10.075C1 11.2301 1 11.8076 1.2248 12.2489C1.42254 12.637 1.73806 12.9525 2.12615 13.1502C2.56734 13.375 3.14489 13.375 4.3 13.375H8.7C9.85514 13.375 10.4326 13.375 10.8739 13.1502C11.262 12.9525 11.5775 12.637 11.7752 12.2489C12 11.8076 12 11.2301 12 10.075V9.1125C12 7.95736 12 7.37986 11.7752 6.93862C11.5775 6.55053 11.262 6.23504 10.8739 6.03731C10.6289 5.91253 10.342 5.85698 9.9375 5.8323M3.0625 5.8323V4.4375C3.0625 2.53902 4.60152 1 6.5 1C8.39846 1 9.9375 2.53902 9.9375 4.4375V5.8323" stroke="#8D9191" stroke-width="1.375" stroke-linecap="round" stroke-linejoin="round"/>
</svg>
