<svg width="23" height="23" viewBox="0 0 23 23" fill="none" xmlns="http://www.w3.org/2000/svg">
<path d="M18.1196 6.76434C17.8619 6.50661 17.4441 6.50661 17.1864 6.76434C16.9287 7.02207 16.9287 7.37682 17.1864 7.63488L19.8657 10.2508H11.5662V2.24136L14.3867 4.9797C14.5154 5.10873 14.7256 5.17308 14.8945 5.17308C15.0635 5.17308 15.2529 5.10873 15.382 4.9797C15.6397 4.7223 15.6499 4.30419 15.3922 4.04646L11.545 0.19338C11.4213 0.0696301 11.2563 0 11.0811 0C10.9062 0 10.7395 0.0696301 10.6158 0.19338L6.76335 4.04613C6.50562 4.30386 6.50595 4.72164 6.76368 4.97937C7.02141 5.2371 7.35702 5.2371 7.61475 4.97937L10.2465 2.26545V10.2508H2.30043L4.97937 7.63455C5.2371 7.37682 5.2371 6.99039 4.97937 6.73266C4.72164 6.47493 4.30353 6.49044 4.04613 6.74817L0.19338 10.6088C0.0696301 10.7326 0 10.9045 0 11.0794C0 11.2543 0.0696301 11.4243 0.19338 11.548L4.04613 15.4011C4.17516 15.5301 4.34379 15.5948 4.51275 15.5948C4.68171 15.5948 4.85067 15.5308 4.9797 15.4018C5.23743 15.144 5.23743 14.6636 4.9797 14.4058L2.20671 11.5708H10.2462V19.9006L7.61475 17.1867C7.35702 16.929 6.98016 16.929 6.72276 17.1867C6.46503 17.4445 6.48549 17.8622 6.74322 18.12L10.6065 21.9727C10.7303 22.0965 10.9032 22.1661 11.0784 22.1661C11.2537 22.1661 11.4239 22.0965 11.5477 21.9727L15.4014 18.12C15.6592 17.8622 15.6598 17.4441 15.4021 17.1867C15.1444 16.929 14.6437 16.929 14.3867 17.1867L11.5662 19.9251V11.5708H19.9597L17.1867 14.4062C16.929 14.6636 16.929 15.1133 17.1867 15.3711C17.3158 15.5001 17.4844 15.58 17.6533 15.58C17.8223 15.58 17.9909 15.5235 18.12 15.3945L21.9731 11.5464C22.0968 11.4226 22.1664 11.2566 22.1664 11.0817C22.1664 10.9068 22.0968 10.7398 21.9731 10.6161L18.1196 6.76434Z" fill="#8D9191"/>
</svg>
